<?xml version="1.0" standalone="no"?>
<!DOCTYPE svg PUBLIC "-//W3C//DTD SVG 20010904//EN"
 "http://www.w3.org/TR/2001/REC-SVG-20010904/DTD/svg10.dtd">
<svg version="1.0" xmlns="http://www.w3.org/2000/svg"
 width="1084.000000pt" height="1084.000000pt" viewBox="0 0 1084.000000 1084.000000"
 preserveAspectRatio="xMidYMid meet">
<metadata>
Created by potrace 1.14, written by Peter Selinger 2001-2017
</metadata>
<g transform="translate(0.000000,1084.000000) scale(0.100000,-0.100000)"
fill="#000000" stroke="none">
<path d="M5165 10834 c-1375 -76 -2618 -626 -3575 -1584 -607 -606 -1056
-1336 -1318 -2140 -186 -570 -266 -1078 -266 -1690 0 -340 14 -526 60 -830
172 -1132 706 -2182 1524 -3000 606 -607 1336 -1056 2140 -1318 570 -186 1078
-266 1690 -266 340 0 526 14 830 60 1582 241 2990 1189 3817 2569 423 705 666
1451 750 2295 23 241 23 739 0 980 -43 436 -120 804 -249 1200 -400 1229
-1247 2289 -2363 2957 -702 421 -1461 669 -2285 748 -160 15 -614 27 -755 19z
m1956 -1180 c11 -14 13 -14 21 0 7 12 25 16 67 16 41 0 62 -5 72 -16 11 -14
13 -14 21 0 6 10 23 16 44 16 46 0 66 -36 40 -74 -9 -14 -16 -43 -16 -64 0
-21 -5 -43 -12 -50 -14 -14 -124 -16 -133 -2 -4 7 -12 7 -25 0 -29 -16 -126
-12 -140 5 -17 20 -24 124 -11 158 12 31 50 37 72 11z m-292 -273 c9 -6 22 -6
31 -1 9 5 27 6 39 3 21 -5 22 -10 19 -97 l-3 -91 -28 -3 c-23 -3 -30 1 -34 19
l-6 23 -9 -23 c-6 -17 -14 -22 -35 -19 -28 3 -28 3 -31 92 -2 65 1 92 10 98
17 10 30 10 47 -1z m569 -9 c2 -8 8 -7 19 4 10 10 24 13 37 9 12 -4 26 -6 31
-5 68 7 140 3 152 -8 17 -17 18 -153 1 -170 -17 -17 -58 -15 -65 4 -5 14 -7
14 -14 1 -13 -21 -138 -22 -146 0 -5 14 -7 14 -15 0 -7 -13 -32 -16 -151 -15
-78 0 -174 -1 -214 -2 -97 -4 -103 2 -103 102 0 72 2 79 23 87 35 14 440 7
445 -7z m-632 -235 c45 5 53 3 63 -14 7 -15 17 -19 36 -16 41 8 55 -12 55 -83
0 -34 -4 -66 -10 -69 -5 -3 -62 -6 -126 -7 -102 0 -119 2 -131 18 -14 19 -18
141 -5 160 10 16 35 23 52 14 8 -5 38 -6 66 -3z m449 2 c11 0 74 0 140 0 66 0
134 1 150 2 101 9 167 4 180 -14 11 -15 13 -16 19 -2 7 18 66 21 84 3 16 -16
15 -43 -3 -58 -10 -8 -15 -30 -15 -61 0 -62 -7 -65 -150 -62 -58 2 -136 3
-175 2 -38 0 -81 -1 -95 -1 -14 0 -54 2 -90 4 -36 3 -74 1 -85 -2 -11 -4 -69
-5 -130 -1 l-110 6 -2 67 c-1 38 3 70 7 73 5 3 30 7 55 9 26 2 51 10 58 19 16
21 43 27 97 21 25 -3 54 -5 65 -5z m-5461 -275 c9 -3 16 -13 16 -22 0 -13 3
-13 19 2 24 22 80 18 95 -6 8 -13 6 -25 -7 -47 -9 -16 -17 -40 -17 -53 -1 -64
-7 -69 -84 -66 l-71 3 -3 85 c-2 71 0 87 14 97 21 15 18 15 38 7z m4894 -5
c12 0 29 0 37 0 8 0 23 1 33 1 9 0 52 2 95 5 88 6 106 -1 108 -44 1 -25 1 -25
10 5 6 20 17 34 31 38 37 10 128 7 149 -5 15 -8 24 -7 35 2 11 9 21 9 40 0 15
-6 32 -8 42 -3 9 5 69 7 132 5 63 -2 129 -2 145 -1 17 1 79 2 139 1 79 -1 111
-5 117 -14 5 -8 8 -50 7 -94 l-3 -80 -410 -2 c-312 -2 -411 1 -417 10 -4 7 -8
28 -9 47 -2 32 -2 31 -8 -10 l-6 -45 -205 -1 c-120 -1 -210 3 -217 9 -8 6 -13
36 -13 83 0 93 9 103 87 97 32 -2 68 -4 81 -4z m-4600 -247 c15 -15 21 -16 28
-6 10 15 113 22 133 10 6 -4 11 -15 12 -24 0 -12 3 -10 10 6 7 19 15 23 45 20
50 -4 64 -28 42 -70 -10 -18 -19 -51 -20 -73 l-3 -40 -72 -3 c-53 -2 -73 1
-73 10 0 9 -3 9 -12 0 -8 -8 -54 -12 -140 -12 -110 0 -128 2 -137 18 -10 16
-10 16 -11 0 0 -16 -10 -18 -75 -18 -65 0 -76 -3 -85 -21 -8 -14 -19 -19 -38
-17 -25 3 -27 6 -27 53 l0 50 35 0 35 0 5 60 c5 57 6 60 33 63 22 3 30 -1 34
-18 l6 -21 14 21 c12 16 25 20 74 20 45 0 61 -4 66 -15 5 -14 8 -14 22 -1 15
13 40 22 69 25 6 0 20 -7 30 -17z m4577 4 c15 -11 24 -11 49 -1 36 15 202 17
229 3 15 -8 17 -21 15 -96 l-3 -87 -272 -2 -271 -2 1 92 2 92 43 1 c23 1 45 3
47 6 12 12 143 7 160 -6z m503 4 c12 0 31 0 42 0 11 0 28 0 38 -1 9 0 55 0
102 1 104 2 120 2 143 1 27 -2 55 -1 174 4 143 6 145 4 141 -109 l-3 -81 -415
0 -415 0 0 85 c0 80 1 85 25 97 16 9 46 12 85 8 33 -2 70 -5 83 -5z m-5275
-310 l6 -30 38 18 c21 9 42 23 46 30 13 19 94 15 125 -7 43 -30 71 -35 79 -14
4 10 11 21 17 25 18 13 166 9 166 -3 0 -8 4 -8 13 -1 6 5 60 10 119 10 121 0
112 7 123 -91 5 -45 3 -64 -9 -83 -18 -26 -45 -31 -64 -12 -7 7 -15 8 -24 1
-17 -13 -120 -14 -135 -1 -9 7 -18 7 -27 -2 -10 -8 -40 -10 -93 -7 -43 3 -82
5 -88 5 -5 0 -109 -1 -230 -3 -196 -2 -220 -5 -223 -19 -3 -13 -12 -16 -35
-14 -31 3 -32 5 -35 51 -2 26 1 47 7 47 6 0 5 11 -2 29 -5 15 -7 35 -4 45 7
17 52 22 61 7 7 -11 88 18 99 36 4 7 21 13 36 13 24 0 30 -5 34 -30z m4424 19
c9 -8 13 -8 13 0 0 14 57 15 65 1 4 -7 12 -7 25 0 27 14 243 13 258 -2 8 -8
15 -8 25 1 10 8 53 11 133 9 l119 -3 6 -30 c4 -20 7 -23 8 -9 2 38 20 44 141
44 77 0 120 -4 128 -12 9 -9 15 -9 24 0 7 7 43 12 90 12 63 0 80 -3 85 -16 5
-15 7 -15 15 0 10 18 68 22 68 6 0 -7 6 -7 19 0 11 5 70 10 131 10 61 0 120
-5 131 -10 12 -7 19 -7 19 -1 0 15 128 11 140 -4 6 -8 10 -46 8 -91 -2 -60 -7
-79 -20 -88 -13 -8 -23 -7 -39 2 -15 10 -24 11 -32 3 -16 -16 -47 -13 -54 4
-5 14 -7 14 -23 0 -15 -14 -42 -16 -176 -13 -100 1 -161 7 -168 14 -8 8 -14 7
-24 -3 -19 -18 -146 -18 -164 1 -12 11 -17 11 -33 0 -23 -17 -216 -20 -246 -4
-14 8 -19 23 -21 53 l-1 42 -4 -40 c-3 -22 -9 -45 -15 -52 -14 -17 -207 -18
-242 -2 -19 9 -29 9 -40 0 -21 -18 -325 -12 -335 7 -6 11 -10 10 -20 -2 -15
-18 -81 -22 -98 -5 -8 8 -17 7 -32 -3 -16 -9 -26 -10 -39 -2 -13 9 -18 28 -20
88 -2 45 2 83 8 91 13 16 168 19 187 4z m-4428 -251 c8 -23 11 -23 138 -20
108 3 131 1 142 -12 11 -14 15 -14 28 -1 8 9 33 15 56 15 31 0 45 5 55 20 13
21 56 27 67 10 3 -6 24 -19 46 -29 30 -15 39 -16 39 -6 0 33 30 45 111 45 64
0 81 -3 86 -16 5 -15 7 -15 15 0 10 18 53 22 63 6 4 -7 11 -7 18 -2 17 13 168
14 183 1 9 -7 18 -6 32 2 13 8 27 9 48 2 24 -8 29 -15 27 -39 -3 -48 -18 -128
-26 -142 -6 -8 -36 -12 -94 -12 -77 0 -85 2 -90 20 -5 20 -6 20 -19 2 -17 -24
-132 -29 -141 -6 -5 13 -8 13 -22 0 -24 -22 -447 -22 -459 0 -8 14 -10 14 -21
0 -11 -13 -37 -16 -132 -16 -107 0 -119 2 -132 20 l-14 21 -6 -21 c-4 -17 -13
-20 -57 -20 -83 0 -90 8 -90 98 0 47 5 83 12 90 7 7 38 12 70 12 52 0 60 -3
67 -22z m3861 7 c10 -13 14 -13 26 0 12 12 52 14 210 13 107 -1 197 -5 200
-10 3 -4 14 -4 24 2 25 13 97 13 106 -1 4 -8 9 -8 17 0 6 6 21 11 33 11 13 0
26 -5 30 -11 4 -8 9 -8 17 0 14 14 54 14 62 1 4 -7 11 -7 18 -2 7 5 94 9 195
9 148 0 185 -2 189 -14 4 -11 7 -11 17 3 7 9 22 14 37 12 22 -3 24 -8 28 -68
l5 -65 5 65 c6 60 8 65 30 68 15 2 30 -3 37 -12 10 -15 12 -15 18 -1 4 12 23
15 89 15 51 0 88 -5 95 -12 9 -9 15 -9 24 0 8 8 52 12 131 12 109 0 119 -2
124 -19 5 -19 5 -19 24 0 16 16 34 19 132 19 61 0 119 -4 127 -10 8 -5 19 -5
25 0 5 4 39 7 75 7 l65 -2 6 -85 c3 -47 2 -90 -3 -97 -10 -13 -126 -13 -146 1
-8 5 -18 4 -25 -3 -7 -7 -54 -11 -124 -11 -98 0 -116 3 -132 19 -19 19 -19 19
-24 0 -5 -17 -15 -19 -117 -19 -61 0 -120 5 -132 11 -14 8 -23 8 -31 0 -6 -6
-48 -11 -95 -11 -78 0 -84 2 -90 22 l-5 22 -8 -22 c-9 -24 -52 -31 -65 -11 -4
8 -9 8 -17 0 -20 -20 -58 -13 -65 11 l-5 22 -8 -22 c-7 -18 -16 -22 -53 -22
-25 0 -48 5 -51 10 -4 6 -12 7 -18 3 -18 -11 -130 -13 -142 -3 -6 5 -17 5 -25
0 -25 -16 -90 -12 -97 6 -4 12 -8 13 -14 3 -12 -19 -138 -23 -145 -4 -5 13 -8
12 -21 0 -17 -18 -84 -20 -100 -4 -7 7 -17 8 -25 3 -19 -13 -240 -15 -255 -3
-7 7 -18 6 -32 -3 -16 -10 -25 -10 -39 -1 -12 7 -24 8 -33 2 -21 -13 -123 -11
-137 3 -7 7 -12 42 -12 88 0 46 5 81 12 88 16 16 43 15 58 -3z m-3582 -277 c7
-7 13 -26 13 -42 1 -17 3 -23 6 -14 2 10 16 21 30 24 14 4 34 15 44 25 25 25
56 24 71 -1 10 -15 24 -20 58 -20 25 0 51 -5 57 -11 8 -8 17 -8 31 0 11 6 39
11 61 11 30 0 43 5 51 20 6 11 19 20 29 20 10 0 30 -9 44 -20 14 -11 32 -20
40 -20 23 0 40 -27 35 -55 -3 -14 -1 -28 3 -31 5 -3 9 20 9 51 0 48 3 57 23
64 18 7 146 7 455 2 6 0 23 0 37 0 14 0 31 0 38 0 6 0 66 1 132 3 66 2 128 -1
137 -6 11 -5 25 -4 37 4 15 9 24 8 45 -5 14 -10 26 -13 26 -8 0 15 65 24 86
13 12 -6 45 -6 84 -2 37 5 72 4 82 -1 11 -6 34 -5 64 3 43 12 47 11 63 -9 14
-16 20 -18 27 -8 5 7 33 15 62 18 43 5 56 3 72 -13 14 -14 20 -16 24 -5 7 18
69 30 92 17 12 -6 42 -6 79 -1 44 6 65 5 80 -5 16 -10 25 -10 45 1 33 17 65
16 80 -2 8 -9 17 -12 24 -6 6 4 36 11 67 15 43 4 60 2 68 -8 10 -12 16 -12 39
0 35 18 67 18 85 0 8 -8 18 -11 23 -7 18 16 122 22 136 8 10 -11 17 -11 41 1
17 8 39 11 55 7 32 -8 18 -7 212 -2 85 3 160 2 167 0 7 -3 13 -22 14 -42 1
-20 4 -47 8 -61 l7 -25 8 24 c5 14 4 27 -3 34 -15 15 -14 52 2 64 10 8 160 9
832 4 6 0 129 1 274 3 206 2 266 -1 276 -11 10 -10 14 -10 17 -1 7 19 445 19
464 0 8 -7 14 -9 14 -3 0 16 48 25 64 12 9 -8 22 -8 44 0 25 9 112 8 252 -1 8
0 42 1 76 4 33 2 67 0 74 -4 9 -6 13 -28 11 -73 -1 -37 3 -68 9 -72 6 -4 4
-12 -6 -23 -19 -19 -131 -26 -151 -10 -9 7 -18 7 -27 -1 -14 -12 -127 -15
-266 -7 -84 4 -80 3 -81 24 0 14 -2 13 -9 -4 -8 -20 -15 -21 -192 -21 -100 0
-188 4 -195 9 -7 6 -14 5 -18 -2 -8 -13 -52 -13 -61 1 -4 8 -9 8 -17 0 -14
-14 -54 -14 -62 -1 -4 7 -11 7 -18 2 -7 -6 -278 -9 -653 -8 -503 1 -644 4
-656 14 -13 10 -17 10 -22 -3 -9 -24 -55 -19 -66 8 -6 15 -9 17 -9 6 -1 -9 -8
-20 -17 -23 -25 -10 -82 -7 -89 4 -4 7 -13 6 -27 -1 -15 -8 -27 -8 -44 0 -15
6 -25 7 -29 1 -8 -13 -231 -13 -255 0 -13 7 -21 7 -25 0 -4 -6 -55 -10 -121
-10 -64 0 -124 5 -134 10 -13 7 -21 7 -25 0 -4 -6 -55 -10 -121 -10 -64 0
-124 5 -134 10 -13 7 -21 7 -25 0 -4 -6 -56 -10 -125 -10 -91 0 -122 3 -133
15 -13 13 -16 13 -27 0 -15 -18 -219 -21 -252 -4 -14 8 -23 8 -31 0 -16 -16
-239 -15 -255 1 -9 9 -15 9 -24 0 -15 -15 -55 -16 -63 -2 -4 7 -11 8 -18 1 -7
-5 -68 -9 -136 -8 -96 0 -124 4 -128 15 -5 11 -7 11 -14 1 -9 -16 -103 -28
-145 -19 -17 4 -66 6 -110 4 -157 -6 -182 -6 -202 5 -12 6 -23 7 -26 2 -3 -5
-188 -9 -410 -10 -448 -1 -442 -1 -419 60 7 17 7 31 2 35 -16 9 -10 43 10 54
11 5 51 10 90 10 58 0 75 4 91 20 23 23 50 26 68 8z m-116 -252 c10 -18 38
-22 38 -6 0 6 12 15 26 20 36 14 64 -3 64 -40 l0 -30 20 20 c11 11 27 20 35
20 7 0 18 6 22 14 15 25 50 29 72 7 24 -24 51 -28 51 -7 0 18 38 28 62 15 10
-5 18 -16 18 -24 0 -10 11 -12 43 -10 23 2 52 4 65 4 12 1 22 7 22 15 0 29 48
29 78 -1 7 -7 22 -13 31 -13 26 0 44 -26 39 -55 -3 -14 -1 -28 3 -31 5 -3 9
20 9 51 0 44 4 57 18 63 15 6 178 8 252 3 14 -1 70 0 125 3 117 6 155 1 155
-22 0 -13 2 -13 14 3 12 16 29 19 122 21 74 2 118 -2 136 -11 20 -9 28 -10 31
-2 2 8 41 11 123 10 105 -1 171 -1 279 -1 17 0 41 -1 55 -1 14 -1 32 -2 40 -1
8 0 44 0 80 1 36 0 81 1 100 1 19 1 46 0 60 0 14 -1 35 -2 48 -1 26 0 141 1
180 1 26 -1 210 0 285 0 20 0 48 -1 62 -1 29 -1 32 -1 120 0 78 1 126 1 160 0
14 0 31 0 38 0 6 1 44 1 82 1 39 0 88 0 109 1 25 0 41 -4 44 -12 3 -10 6 -10
12 -2 4 7 15 12 26 11 10 0 51 1 89 2 80 2 120 2 155 0 14 -1 34 -2 45 -1 49
1 157 1 230 0 44 -1 109 -1 145 0 36 2 99 2 140 1 41 -1 104 -1 140 -1 249 5
505 -1 508 -11 3 -9 6 -9 12 0 5 8 71 12 234 13 190 1 229 -1 236 -13 6 -9 10
-10 10 -3 0 17 150 17 150 0 0 -8 4 -7 9 2 9 14 36 17 111 12 14 -1 32 -1 40
-1 8 1 44 1 80 1 36 0 83 0 105 0 22 0 69 -1 105 -3 59 -3 65 -5 68 -26 2 -13
-1 -29 -7 -35 -5 -7 -13 -36 -17 -65 -4 -29 -12 -55 -18 -59 -16 -10 -170 -3
-174 8 -2 5 -11 5 -20 0 -23 -12 -142 -12 -142 0 0 6 -7 6 -19 -1 -32 -16
-101 -13 -108 6 -5 14 -7 14 -14 1 -6 -11 -27 -15 -75 -15 -59 0 -67 2 -72 21
-5 21 -5 21 -13 0 -7 -20 -15 -20 -191 -20 -101 0 -188 4 -195 9 -7 5 -14 5
-18 -2 -8 -13 -52 -13 -61 1 -4 8 -9 8 -17 0 -14 -14 -54 -14 -62 -1 -4 7 -11
7 -18 2 -9 -7 -650 -16 -902 -12 -11 0 -125 0 -253 1 -198 1 -234 3 -239 16
-5 13 -7 13 -14 0 -7 -12 -40 -15 -191 -15 -101 0 -188 5 -195 10 -7 5 -13 5
-17 -1 -8 -12 -128 -12 -143 0 -7 7 -14 6 -18 -1 -3 -5 -26 -10 -50 -10 -24 0
-47 5 -50 10 -4 7 -11 7 -18 2 -16 -12 -135 -13 -143 0 -4 5 -10 5 -17 0 -16
-13 -369 -12 -384 1 -9 6 -17 6 -25 -1 -17 -13 -119 -13 -136 1 -9 7 -16 7
-24 -1 -14 -14 -94 -16 -103 -2 -4 6 -13 5 -25 -2 -13 -8 -25 -9 -42 -2 -16 7
-30 7 -46 -1 -31 -16 -216 -12 -237 5 -12 10 -18 10 -30 0 -19 -16 -173 -21
-227 -8 -25 6 -38 15 -39 26 0 13 -3 11 -9 -5 -6 -14 -19 -23 -32 -24 -105 -6
-179 -4 -208 6 -27 8 -43 8 -64 0 -35 -15 -222 -11 -241 5 -9 7 -15 8 -20 1
-3 -7 -62 -11 -148 -12 -266 -1 -342 -2 -382 -1 -22 1 -93 0 -157 0 -82 -1
-121 2 -132 12 -12 9 -16 31 -16 84 0 39 4 76 8 82 17 28 129 28 144 0z m47
-277 c10 -11 31 -23 47 -28 31 -8 44 -42 25 -65 -14 -17 5 -26 33 -16 18 6 18
7 2 13 -12 5 -16 15 -14 34 l3 28 270 0 270 0 0 -70 0 -70 -373 -2 c-323 -2
-374 0 -379 13 -5 13 -7 12 -17 -2 -7 -9 -22 -14 -37 -12 -23 3 -24 7 -27 86
-2 46 2 89 7 96 6 7 42 12 90 13 70 2 84 -1 100 -18z m727 -4 c19 -17 30 -21
33 -12 4 16 31 37 47 37 7 0 25 -11 41 -23 35 -29 73 -41 73 -22 0 18 28 45
45 45 7 0 28 -12 45 -26 31 -26 31 -26 37 -6 8 30 39 37 70 15 37 -26 46 -31
67 -37 14 -5 17 -14 14 -41 -2 -19 0 -35 4 -35 4 0 8 21 8 48 0 75 4 77 131
80 86 2 117 -1 135 -12 17 -12 24 -12 27 -3 6 19 230 23 249 4 12 -13 18 -13
39 -1 16 9 61 13 131 14 97 0 108 -2 118 -20 10 -19 11 -19 30 0 18 18 34 20
129 20 84 0 111 -3 121 -15 11 -13 15 -13 33 0 16 11 50 15 128 15 82 0 109
-3 119 -15 11 -13 15 -13 33 0 30 21 229 21 246 1 10 -12 16 -12 41 1 23 11
55 13 137 9 60 -2 115 -5 123 -5 8 0 61 2 118 5 115 7 152 1 152 -22 0 -13 5
-12 26 5 23 18 41 21 126 21 55 0 108 -5 119 -10 13 -8 25 -7 39 0 14 8 26 8
41 -1 15 -8 24 -8 32 0 14 14 80 14 94 0 8 -8 17 -7 32 3 17 10 25 10 41 0 13
-8 27 -9 38 -4 9 5 71 8 137 6 66 -2 125 -3 130 -3 6 0 129 1 274 3 191 2 267
-1 275 -9 8 -9 14 -9 25 2 8 9 22 12 35 8 12 -4 26 -6 31 -5 55 6 467 4 471
-2 3 -5 11 -5 17 -1 18 11 158 13 178 2 13 -6 25 -6 39 3 16 10 24 10 40 0 15
-9 26 -10 40 -2 14 8 26 7 41 -1 15 -8 24 -8 32 0 14 14 84 15 92 1 3 -6 15
-5 31 2 19 9 30 9 44 0 15 -9 26 -9 44 0 20 8 29 8 41 -2 12 -10 19 -10 27 -2
14 14 77 16 97 3 9 -6 23 -5 37 1 43 20 55 -3 52 -101 l-3 -86 -32 -3 c-26 -3
-33 0 -33 15 -1 16 -1 16 -10 1 -9 -14 -33 -16 -200 -16 -113 0 -190 4 -190 9
0 6 -7 6 -17 0 -11 -5 -190 -9 -422 -9 -400 0 -403 0 -409 21 -5 20 -5 20 -13
-1 -9 -24 -47 -30 -67 -10 -9 9 -12 9 -12 0 0 -7 -14 -12 -35 -12 -21 0 -35 5
-35 13 0 9 -2 9 -8 1 -9 -16 -821 -17 -839 -2 -9 7 -13 7 -13 0 0 -8 -31 -11
-90 -11 -58 1 -90 5 -90 12 0 7 -4 7 -12 -1 -8 -8 -53 -12 -134 -12 -112 0
-124 2 -137 20 l-14 21 -6 -21 c-5 -19 -13 -20 -124 -20 -79 0 -123 4 -131 12
-9 9 -15 9 -24 0 -19 -19 -242 -16 -261 3 -13 13 -16 13 -21 0 -4 -12 -29 -15
-125 -15 -92 0 -123 3 -134 15 -13 13 -16 13 -21 0 -4 -12 -29 -15 -130 -15
-79 0 -127 4 -132 11 -4 8 -9 8 -17 0 -7 -7 -59 -11 -134 -11 -119 0 -124 1
-132 22 l-8 23 -7 -23 c-7 -21 -12 -22 -130 -22 -81 0 -126 4 -134 12 -9 9
-15 9 -24 0 -16 -16 -239 -17 -256 0 -8 8 -15 8 -25 0 -10 -8 -129 -11 -418
-9 l-404 2 -3 84 c-2 46 -1 90 2 98 8 21 40 15 72 -12z m5620 -3 c11 -23 12
-23 17 -3 5 21 46 29 81 15 20 -8 21 -57 2 -74 -8 -6 -16 -33 -18 -58 l-3 -47
-70 0 -70 0 -3 89 c-2 65 1 92 10 98 20 13 41 5 54 -20z m-6268 -240 c13 -20
23 -22 102 -22 83 0 89 1 104 26 21 32 56 29 73 -6 16 -32 58 -29 90 6 28 31
48 30 69 -1 13 -19 25 -25 67 -27 l52 -3 0 -70 0 -70 -355 0 -355 0 3 35 c4
61 4 74 -3 101 -10 40 12 55 80 54 48 -1 61 -5 73 -23z m930 3 c36 -30 42 -31
42 -6 0 29 36 36 67 14 37 -26 46 -31 66 -37 14 -5 18 -14 16 -40 -2 -19 0
-38 4 -42 4 -4 7 20 7 52 0 87 24 105 79 58 l31 -26 18 22 c24 30 110 40 134
16 14 -14 20 -14 43 -2 38 20 220 20 239 0 12 -12 18 -12 42 1 29 15 210 20
231 7 5 -4 15 -16 21 -27 10 -18 11 -18 12 -2 0 10 11 22 24 27 37 14 211 11
232 -4 14 -11 22 -11 43 0 30 16 124 18 151 4 13 -7 27 -6 44 1 20 9 29 9 40
0 11 -10 24 -10 48 -2 47 15 208 13 233 -4 17 -11 24 -10 39 1 13 9 24 10 37
3 13 -6 25 -6 38 1 26 14 74 13 89 -2 9 -9 17 -9 36 1 17 10 29 10 44 2 14 -7
29 -8 46 -2 25 10 197 13 229 5 9 -3 17 -12 17 -20 0 -19 10 -18 26 4 10 14
31 17 123 19 97 2 114 0 130 -16 16 -16 19 -16 28 -2 14 22 225 28 245 8 10
-11 17 -11 37 -1 17 9 30 10 43 3 12 -6 25 -6 37 1 12 6 52 8 98 4 91 -6 78
-6 172 0 41 3 83 1 92 -5 12 -6 27 -5 43 2 19 9 29 9 39 0 9 -7 24 -8 38 -4
24 8 124 9 209 2 l45 -4 3 -92 3 -93 -36 0 c-27 0 -35 4 -35 18 -1 16 -1 16
-11 0 -9 -16 -37 -17 -337 -17 -208 1 -332 5 -339 11 -9 7 -13 7 -13 -1 0 -15
-53 -14 -68 1 -9 9 -12 9 -12 0 0 -16 -246 -17 -256 -1 -4 8 -9 8 -17 0 -7 -7
-59 -11 -133 -11 -112 0 -124 2 -137 20 l-14 21 -6 -21 c-5 -20 -11 -20 -229
-19 -124 0 -228 5 -235 10 -7 7 -14 6 -18 -1 -3 -5 -17 -10 -30 -10 -13 0 -27
5 -30 10 -5 8 -11 8 -20 0 -18 -15 -345 -13 -345 3 0 8 -3 8 -12 -1 -15 -15
-174 -16 -184 -1 -4 8 -9 8 -17 0 -7 -7 -59 -11 -134 -11 -119 0 -124 1 -132
22 l-8 23 -7 -23 c-7 -21 -12 -22 -130 -22 -84 0 -126 4 -135 13 -11 10 -14
10 -18 0 -3 -10 -39 -13 -133 -13 -94 0 -129 3 -133 13 -3 9 -7 9 -19 0 -11
-10 -112 -12 -419 -10 l-404 2 -3 24 c-2 15 3 30 12 37 15 11 15 12 1 18 -11
4 -15 15 -13 33 l3 28 133 0 c95 0 132 3 132 12 0 16 28 43 45 43 7 0 27 -11
43 -25z m3947 16 c11 1 54 1 95 0 41 -2 84 -2 95 -2 46 2 262 1 280 0 11 -1
27 1 36 5 10 4 22 1 30 -7 12 -12 17 -12 36 0 15 10 34 13 55 9 18 -4 41 -7
51 -6 9 0 26 0 37 0 11 0 29 0 40 0 11 0 29 0 40 0 11 0 29 0 40 1 11 0 38 0
60 0 22 0 49 0 60 0 11 -1 29 -1 40 -1 11 0 29 0 40 0 11 0 29 0 40 0 11 0 28
0 38 0 9 -1 32 2 50 6 22 4 40 1 57 -10 14 -9 25 -12 25 -7 0 19 41 23 61 5
10 -9 19 -12 19 -7 0 19 32 24 54 10 18 -12 23 -12 34 -1 12 14 138 13 174 -1
9 -4 25 -2 36 4 14 7 25 6 41 -6 17 -11 26 -12 34 -4 16 16 63 13 81 -5 20
-19 20 -25 1 -50 -8 -10 -15 -37 -15 -59 0 -22 -4 -45 -8 -52 -5 -8 -58 -11
-180 -11 -153 0 -172 2 -172 17 -1 15 -1 15 -10 -1 -15 -25 -150 -25 -150 0
-1 16 -1 16 -10 0 -9 -15 -33 -17 -200 -17 -126 0 -190 4 -190 11 0 7 -4 7
-13 0 -8 -7 -63 -11 -140 -11 -108 0 -128 3 -137 17 -9 16 -9 16 -10 0 0 -15
-23 -17 -271 -16 -224 0 -271 3 -276 14 -4 12 -7 12 -17 -2 -7 -9 -22 -14 -37
-12 -23 3 -24 7 -27 86 -3 92 7 118 42 107 12 -4 30 -6 41 -4z m-4958 -297 c5
-15 7 -15 15 0 7 13 28 16 114 16 97 0 106 -2 111 -20 5 -17 14 -20 59 -20 33
0 54 -4 54 -11 0 -7 7 -8 18 -4 43 18 93 23 177 17 90 -7 90 -7 96 -37 6 -29
7 -29 8 -4 1 21 9 30 41 43 22 9 40 20 40 26 0 5 14 10 31 10 22 0 32 -6 36
-19 5 -21 38 -18 47 5 3 8 19 14 36 14 22 0 33 -6 41 -23 10 -22 16 -23 62
-19 36 3 56 10 66 23 18 25 56 24 88 -1 14 -11 32 -20 39 -20 7 0 18 -8 23
-17 9 -16 10 -15 11 8 0 44 15 49 141 49 93 0 119 -3 130 -16 11 -14 13 -14
21 0 7 13 31 16 133 16 89 0 125 -3 128 -12 4 -10 7 -10 18 0 9 8 51 12 135
12 118 0 123 -1 130 -22 l7 -23 8 23 c8 21 13 22 133 22 79 0 127 -4 132 -11
4 -8 9 -8 17 0 7 7 59 11 134 11 100 0 125 -3 129 -15 5 -13 8 -13 21 0 22 22
251 22 260 0 5 -14 7 -14 22 -1 14 13 59 15 274 15 256 0 258 0 266 -21 l8
-22 12 22 c11 21 18 22 137 22 105 0 126 -2 131 -16 5 -15 7 -15 15 0 8 13 29
16 133 16 86 0 125 -4 125 -11 0 -8 4 -8 13 -1 8 7 151 10 422 9 l410 -2 5
-30 c4 -20 8 -26 13 -17 6 8 44 12 131 12 100 0 126 -3 137 -16 11 -14 13 -14
21 0 6 11 24 16 57 16 40 0 50 3 54 20 4 14 14 20 35 20 17 0 34 -5 38 -11 3
-6 22 -17 40 -25 31 -13 34 -18 34 -56 0 -40 1 -41 17 -25 14 14 15 20 4 40
-7 13 -11 35 -9 48 l3 24 415 0 415 0 4 -30 4 -30 6 30 c7 33 41 46 67 25 8
-7 14 -8 14 -2 0 6 70 10 190 10 160 1 191 -1 198 -14 8 -14 10 -14 21 0 17
21 65 20 85 0 19 -19 19 -18 2 -52 -7 -15 -16 -47 -19 -71 -3 -24 -11 -48 -19
-52 -15 -10 -314 -5 -339 6 -10 3 -20 2 -24 -4 -9 -16 -72 -13 -87 3 -11 12
-15 12 -30 -1 -26 -24 -58 -8 -59 30 -2 28 -2 29 -6 7 -9 -50 -15 -52 -182
-49 -86 2 -162 7 -169 13 -8 6 -17 5 -24 -2 -15 -15 -80 -16 -95 -1 -8 8 -17
8 -33 -1 -12 -6 -29 -8 -38 -4 -9 4 -21 6 -27 4 -26 -8 -169 -9 -183 -1 -10 5
-23 5 -33 -2 -13 -8 -24 -8 -43 1 -14 6 -28 8 -30 3 -3 -5 -59 -7 -123 -6
-137 4 -135 4 -278 0 -131 -3 -149 3 -142 51 3 18 1 36 -4 39 -5 4 -9 -11 -9
-32 0 -22 -5 -44 -12 -51 -15 -15 -142 -16 -169 -2 -11 6 -25 8 -31 4 -17 -10
-247 -14 -253 -4 -3 4 -19 3 -35 -3 -22 -8 -33 -8 -41 0 -9 9 -18 9 -36 0 -18
-8 -29 -8 -42 0 -11 7 -23 8 -32 2 -20 -12 -83 -11 -96 2 -8 8 -17 8 -33 -1
-17 -9 -26 -8 -43 3 -19 12 -24 12 -36 0 -18 -19 -242 -15 -248 4 -3 9 -11 9
-28 -3 -19 -13 -47 -15 -134 -12 -96 3 -112 6 -125 23 -13 17 -15 18 -16 3 0
-9 -8 -19 -17 -22 -10 -2 -129 -4 -264 -3 -181 2 -250 5 -261 15 -13 10 -18 9
-28 -3 -18 -21 -216 -22 -247 0 -18 13 -22 13 -33 0 -10 -12 -37 -15 -119 -15
-78 0 -112 4 -128 15 -18 13 -22 13 -33 0 -10 -12 -37 -15 -121 -15 -93 0
-112 3 -128 19 -18 18 -19 18 -35 0 -14 -16 -30 -19 -118 -19 -67 1 -112 5
-127 14 -21 12 -27 12 -39 -1 -21 -20 -238 -15 -251 6 -8 12 -12 11 -27 -3
-15 -15 -32 -17 -138 -12 -67 2 -125 5 -131 5 -5 0 -124 -2 -263 -4 -166 -4
-259 -2 -272 5 -12 6 -21 22 -21 38 -2 27 -2 27 -6 2 -3 -14 -10 -31 -15 -37
-14 -17 -207 -18 -243 -1 -19 9 -28 9 -37 0 -8 -8 -49 -12 -112 -12 -116 0
-146 6 -146 28 0 12 -4 11 -16 -6 -12 -18 -25 -22 -69 -22 -73 0 -85 14 -85
100 0 38 3 75 6 84 8 21 63 21 71 0z m161 -236 c9 -9 12 -9 12 0 0 21 58 14
70 -8 8 -15 21 -20 53 -20 24 0 49 -6 55 -12 10 -10 17 -10 32 0 11 6 51 12
90 12 57 0 74 4 91 21 13 13 30 19 47 17 26 -3 27 -6 30 -66 2 -35 7 -60 12
-57 5 3 7 20 3 36 -7 38 7 49 62 49 29 0 44 5 53 20 14 24 54 26 76 5 13 -14
67 -39 70 -33 20 50 66 62 99 27 l21 -22 14 21 c18 28 63 29 87 2 10 -11 26
-20 36 -20 10 0 23 -8 28 -17 9 -16 10 -15 11 8 0 44 15 49 141 49 93 0 119
-3 130 -16 11 -14 13 -14 21 0 7 13 30 16 126 16 79 0 122 -4 130 -12 9 -9 15
-9 24 0 8 8 53 12 134 12 118 0 123 -1 130 -22 l7 -23 8 23 c8 21 13 22 133
22 73 0 127 -4 131 -10 4 -7 12 -7 25 0 23 12 248 11 256 -1 3 -5 13 -5 24 1
10 5 71 10 135 10 95 0 117 -3 122 -15 5 -14 7 -14 22 -1 14 13 58 15 279 15
181 -1 262 -5 262 -12 0 -7 4 -7 12 1 17 17 58 15 65 -4 5 -14 7 -14 14 -1 7
12 41 14 199 15 124 0 190 -3 190 -10 0 -7 4 -7 13 0 17 14 147 14 147 -1 0
-8 4 -7 12 1 7 7 33 12 58 12 25 0 51 -5 58 -12 9 -9 12 -9 12 0 0 15 56 16
66 1 4 -8 9 -8 17 0 6 6 21 11 33 11 13 0 26 -5 30 -11 4 -8 9 -8 17 0 6 6 48
11 94 11 78 0 84 -2 94 -24 10 -22 15 -23 79 -18 45 3 70 1 75 -7 5 -9 10 -9
20 -1 36 30 91 -12 67 -50 -10 -17 -10 -23 2 -35 19 -19 7 -74 -21 -92 -19
-13 -24 -12 -45 9 -19 19 -31 22 -71 20 -27 -2 -62 2 -78 8 -23 10 -33 10 -42
1 -6 -6 -44 -11 -89 -11 -63 0 -80 3 -85 16 -4 12 -8 13 -14 3 -12 -19 -138
-23 -145 -4 -5 13 -8 12 -21 0 -17 -18 -84 -20 -100 -4 -7 7 -17 8 -25 3 -19
-13 -120 -13 -136 -1 -9 7 -16 7 -24 -1 -7 -7 -28 -12 -48 -12 -20 0 -41 5
-48 12 -8 8 -15 8 -24 1 -16 -12 -117 -12 -136 1 -8 5 -18 4 -25 -3 -17 -17
-78 -13 -99 6 -10 9 -18 11 -18 5 0 -16 -37 -24 -59 -13 -11 6 -22 7 -25 2 -4
-6 -108 -7 -191 -2 -5 1 -79 -1 -164 -4 -122 -5 -158 -3 -175 8 -18 12 -23 12
-34 0 -11 -11 -46 -14 -170 -12 -87 1 -163 7 -170 12 -9 7 -17 6 -24 -1 -18
-18 -139 -15 -165 3 -18 13 -22 13 -33 0 -10 -12 -36 -15 -114 -15 -116 0
-146 6 -146 28 0 12 -4 11 -16 -6 -14 -20 -23 -22 -122 -22 -69 0 -116 5 -132
13 -22 12 -28 11 -39 0 -10 -11 -38 -13 -129 -9 -144 6 -125 6 -255 0 -60 -3
-121 -1 -137 5 -16 5 -31 6 -35 3 -12 -12 -796 -12 -818 -1 -13 8 -22 8 -30 0
-15 -15 -160 -14 -175 1 -9 9 -15 9 -24 0 -18 -18 -46 -14 -58 7 -14 27 -13
154 2 169 7 7 21 12 33 12 12 0 26 -5 33 -12z m4822 -9 c25 -46 -17 -113 -54
-86 -17 12 -25 75 -12 95 12 20 54 14 66 -9z m115 -34 c0 -49 -1 -50 -30 -50
-28 0 -30 3 -33 39 -5 54 3 68 35 64 26 -3 28 -6 28 -53z m160 0 c0 -49 -1
-50 -30 -50 -28 0 -30 3 -33 39 -5 54 3 68 35 64 26 -3 28 -6 28 -53z m123 43
c7 -7 12 -34 12 -60 0 -34 5 -50 15 -54 20 -8 19 -60 -1 -68 -26 -10 -69 -7
-82 6 -7 7 -12 33 -12 59 0 29 -6 53 -15 63 -20 20 -19 43 3 55 23 14 65 14
80 -1z m117 2 c4 -7 11 -8 18 -1 7 5 158 9 382 8 l370 -2 6 -35 6 -35 2 32 c1
21 7 33 19 37 29 9 443 3 448 -6 3 -5 11 -5 17 0 7 5 59 9 117 8 l105 -1 9
-68 c14 -101 -9 -145 -62 -121 -9 4 -21 6 -27 4 -34 -10 -127 -7 -138 4 -9 11
-14 10 -26 -1 -10 -10 -27 -13 -55 -9 -49 7 -44 7 -126 2 -38 -3 -70 0 -78 6
-9 8 -16 8 -24 0 -15 -15 -132 -16 -159 -2 -10 6 -20 21 -20 33 -1 20 -2 20
-6 2 -3 -11 -10 -26 -15 -32 -13 -16 -159 -18 -175 -2 -7 7 -17 8 -25 3 -7 -5
-129 -9 -271 -10 -211 -1 -261 2 -273 13 -8 8 -14 10 -14 4 0 -16 -40 -24 -55
-11 -11 9 -15 35 -15 95 0 45 3 85 7 88 10 11 51 8 58 -3z m-5254 -293 c7 -12
23 -17 52 -17 24 0 48 -5 54 -11 8 -8 17 -8 31 0 11 6 39 11 61 11 30 0 43 5
51 20 6 11 21 20 34 20 13 0 31 -9 41 -20 10 -11 26 -20 35 -20 24 0 42 -24
40 -52 -1 -13 -1 -30 1 -38 1 -8 5 17 8 55 5 64 8 70 29 73 15 2 34 -5 48 -19
l24 -23 16 22 c19 28 59 28 81 2 10 -11 25 -20 33 -20 9 0 21 -5 28 -12 9 -9
17 -9 34 1 15 8 62 11 138 9 l115 -3 6 -50 c6 -50 6 -49 7 17 2 58 5 67 23 73
22 7 69 -11 69 -27 0 -15 29 -8 38 9 14 25 116 31 141 9 15 -13 20 -14 23 -4
6 17 232 25 252 9 10 -8 22 -8 40 -1 15 5 74 10 131 10 96 0 105 -2 119 -22
13 -18 16 -19 16 -6 0 24 46 30 165 24 119 -6 103 -6 242 0 70 3 120 1 132 -5
13 -7 22 -8 26 -1 11 17 48 11 73 -12 l24 -23 15 23 c19 27 54 28 78 2 10 -11
26 -20 36 -20 10 0 24 -7 32 -15 13 -13 16 -13 27 0 8 9 30 15 56 15 33 0 46
5 54 20 14 25 53 26 77 1 24 -24 83 -36 83 -16 0 26 38 35 150 35 104 0 112
-1 117 -20 6 -21 6 -21 24 -1 17 19 30 19 236 17 120 -2 220 -5 223 -6 3 -1
10 -1 15 1 24 7 331 6 344 -1 8 -4 23 -3 32 3 13 8 24 8 43 -1 16 -7 27 -8 31
-1 4 5 59 8 132 7 108 -2 129 -5 142 -20 19 -22 29 -23 51 -3 9 8 30 17 47 21
41 8 63 -16 63 -70 0 -27 6 -48 15 -56 18 -15 19 -44 2 -58 -8 -7 -56 -9 -132
-7 -66 2 -124 4 -130 4 -5 0 -49 -3 -98 -6 -75 -4 -88 -2 -93 12 -5 13 -8 14
-15 3 -6 -10 -54 -13 -211 -14 -112 -1 -211 3 -220 7 -10 6 -19 5 -23 -1 -8
-13 -82 -13 -90 0 -4 6 -12 7 -18 3 -18 -11 -136 -12 -143 -2 -3 5 -12 5 -22
0 -16 -8 -83 -14 -139 -12 -12 1 -31 10 -41 21 -19 21 -19 21 -25 1 -5 -19
-13 -20 -407 -19 -317 1 -404 4 -415 14 -11 11 -15 11 -25 -1 -15 -18 -219
-21 -252 -4 -14 8 -23 8 -31 0 -12 -12 -213 -16 -241 -5 -9 3 -16 13 -16 21 0
11 -5 9 -18 -7 -16 -20 -23 -21 -137 -16 -66 2 -128 4 -137 4 -17 0 -239 0
-275 0 -10 0 -73 -1 -141 -3 -95 -3 -125 0 -136 11 -12 11 -15 11 -20 -1 -4
-13 -45 -15 -263 -14 -142 1 -266 6 -275 10 -9 5 -19 5 -22 0 -8 -13 -233 -13
-257 0 -15 7 -24 7 -34 -1 -8 -7 -56 -10 -129 -8 -135 3 -145 8 -128 66 9 29
9 46 0 69 -18 49 -1 62 78 59 51 -1 68 -5 75 -19z m5255 8 c5 -13 8 -13 21 0
19 20 87 19 103 0 7 -9 16 -12 19 -7 3 5 34 12 68 16 56 6 63 5 77 -16 13 -18
16 -19 16 -6 0 22 65 36 91 20 12 -8 36 -8 83 -1 51 8 70 8 81 -1 11 -9 22
-10 42 -2 33 14 143 13 161 -1 8 -6 12 -38 12 -93 0 -80 -1 -84 -24 -90 -30
-7 -46 1 -46 24 0 13 -3 12 -16 -6 -13 -19 -24 -22 -85 -22 -39 0 -80 5 -91
11 -14 8 -23 8 -31 0 -17 -17 -233 -15 -249 2 -10 12 -15 12 -26 0 -19 -19
-166 -18 -185 2 -13 13 -16 13 -21 0 -3 -8 -14 -15 -25 -15 -11 0 -26 7 -34
15 -13 13 -16 13 -21 -1 -4 -10 -17 -15 -38 -14 -80 5 -118 0 -118 -14 0 -20
-38 -30 -55 -16 -16 14 -20 77 -6 99 6 9 5 21 -1 31 -22 35 17 74 51 53 11 -7
23 -7 34 -1 9 5 43 8 75 6 l57 -3 6 -50 6 -50 1 61 c1 33 7 65 14 72 17 17 47
15 54 -3z m847 0 c13 -13 16 -13 21 1 5 13 20 15 93 10 103 -6 87 -6 235 0 92
4 119 2 129 -9 12 -12 15 -12 28 0 8 9 22 12 35 8 12 -4 26 -6 31 -5 6 1 49 3
98 5 76 3 89 1 100 -16 11 -15 31 -20 100 -25 96 -8 114 -22 83 -69 -9 -13
-16 -33 -16 -43 0 -11 -6 -24 -12 -30 -16 -12 -336 -13 -344 -1 -3 5 -14 4
-25 -2 -23 -12 -59 -3 -59 14 0 8 -3 7 -9 -1 -13 -22 -64 -28 -164 -20 -106 9
-95 8 -210 2 -84 -5 -89 -4 -94 16 l-6 21 -14 -21 c-9 -13 -23 -20 -36 -18
-20 3 -22 10 -25 92 -2 65 1 92 10 98 19 12 35 10 51 -7z m-1239 -124 c36 -39
-20 -123 -59 -91 -19 15 -20 96 -2 103 25 11 44 7 61 -12z m-4821 -121 c14
-11 31 -20 39 -20 8 0 19 -5 26 -12 9 -9 12 -7 12 10 0 14 9 27 25 34 22 10
30 8 55 -10 35 -26 39 -27 55 -5 10 13 28 17 71 18 52 0 59 -3 71 -25 12 -24
13 -24 13 -3 0 32 36 40 71 14 22 -17 43 -21 99 -21 39 0 79 -6 90 -12 15 -10
22 -10 32 0 13 13 224 17 245 4 6 -4 13 -28 16 -52 3 -36 4 -31 5 22 2 57 5
68 22 73 20 6 59 -9 72 -29 5 -7 15 -3 29 12 23 25 62 24 83 -3 6 -7 25 -16
43 -20 26 -5 32 -3 38 14 9 30 50 33 275 21 8 0 51 2 95 6 72 5 82 4 104 -15
13 -12 32 -21 41 -21 10 0 25 -10 33 -22 13 -18 16 -19 16 -7 1 23 22 29 105
29 59 0 75 3 89 20 27 32 71 24 79 -15 2 -12 10 -18 19 -16 8 3 36 7 62 9 60
5 81 -10 74 -54 -7 -39 -1 -47 25 -33 39 21 78 -13 58 -52 -11 -19 -54 -26
-64 -10 -3 5 -24 3 -46 -5 -30 -10 -52 -11 -82 -5 -23 6 -46 7 -52 4 -16 -10
-250 -3 -260 7 -6 6 -14 6 -21 0 -18 -15 -242 -15 -260 0 -12 10 -18 10 -29 0
-10 -7 -49 -11 -108 -11 -51 1 -166 1 -255 1 -128 0 -165 4 -177 15 -12 13
-15 13 -20 0 -4 -13 -45 -15 -262 -14 -142 1 -263 3 -271 6 -7 3 -14 19 -14
37 -2 29 -2 29 -6 4 -7 -43 -26 -51 -116 -49 -45 2 -159 3 -254 3 -197 -1
-204 2 -185 66 9 29 9 46 -1 71 -17 45 0 55 95 58 63 3 80 0 101 -17z m2847
-35 c0 -80 -62 -88 -68 -9 -4 43 15 65 48 57 16 -4 20 -14 20 -48z m698 45 c6
1 31 1 55 1 23 0 51 0 62 0 11 1 29 0 40 0 11 0 29 0 40 0 11 0 29 0 40 0 11
0 29 0 40 0 25 2 83 2 110 1 11 -1 32 -1 48 -1 15 0 35 0 45 0 9 0 28 0 42 0
13 1 26 -5 28 -11 3 -9 6 -9 13 1 6 10 50 13 189 14 99 1 184 -2 189 -5 4 -3
11 -12 14 -20 4 -12 6 -12 6 1 1 20 27 32 52 24 16 -5 19 -18 21 -73 l2 -67 3
66 c3 57 7 68 24 72 28 8 49 -2 50 -22 0 -13 2 -13 6 -1 3 8 10 17 14 21 7 4
411 3 464 -1 6 -1 47 1 93 4 71 5 85 3 101 -13 14 -14 20 -15 27 -6 5 7 33 15
62 18 43 5 56 3 72 -13 14 -14 20 -15 24 -5 6 18 61 29 83 16 11 -5 44 -6 83
-1 36 4 73 3 82 -2 11 -5 36 -4 64 3 43 11 49 10 64 -8 13 -16 18 -18 26 -8 5
7 33 15 63 18 42 3 57 1 71 -13 15 -15 18 -16 27 -1 8 13 26 15 89 13 43 -1
87 -2 97 -2 9 0 28 0 42 1 40 0 46 0 131 5 62 4 85 2 95 -9 11 -11 17 -11 40
0 24 12 102 13 259 3 8 0 40 1 70 3 79 6 94 -5 87 -58 -4 -24 -2 -58 4 -75 17
-47 1 -58 -81 -58 -39 0 -73 4 -76 9 -3 6 -11 5 -20 -2 -9 -7 -55 -11 -125
-11 -88 0 -114 3 -127 15 -13 14 -17 14 -26 1 -6 -8 -28 -14 -51 -15 -147 -2
-463 3 -477 7 -13 4 -18 17 -20 47 l-1 42 -6 -45 -6 -45 -265 -2 c-227 -2
-267 -1 -276 12 -10 14 -12 14 -18 0 -4 -12 -24 -15 -97 -15 -85 0 -91 1 -97
22 -5 21 -5 21 -13 1 -7 -20 -15 -20 -274 -20 -261 0 -268 0 -273 20 l-5 21
-8 -21 c-6 -18 -16 -20 -74 -20 -60 0 -68 2 -73 20 l-5 21 -8 -21 c-7 -19 -15
-20 -194 -20 -154 0 -188 2 -192 14 -5 12 -7 12 -14 2 -9 -16 -128 -22 -145
-8 -8 7 -14 6 -19 -1 -8 -13 -80 -13 -105 0 -11 6 -21 6 -24 1 -8 -12 -115
-12 -138 0 -10 6 -19 5 -23 -1 -8 -13 -95 -13 -95 0 0 7 -6 7 -18 1 -10 -5
-54 -9 -98 -9 -43 0 -112 -1 -152 -2 -57 -2 -77 1 -89 13 -14 14 -18 14 -27 2
-8 -11 -40 -15 -122 -17 -135 -3 -144 2 -144 78 0 80 9 85 149 82 l116 -3 6
-50 6 -50 2 55 c2 90 0 89 206 83 83 -2 156 -3 163 -3z m-1107 -40 c21 -12 25
-40 8 -57 -8 -8 -7 -17 4 -33 29 -42 -11 -112 -56 -95 -20 8 -31 69 -17 95 7
12 7 27 2 38 -10 19 -5 43 12 54 15 10 24 10 47 -2z m123 -6 c19 -18 19 -20 6
-45 -8 -13 -7 -25 0 -39 15 -28 -4 -60 -35 -60 -30 0 -46 26 -34 58 5 13 5 31
0 40 -22 44 28 81 63 46z m170 -6 c8 -13 7 -23 -2 -39 -11 -18 -11 -24 2 -38
12 -14 13 -24 5 -53 -16 -60 -78 -63 -80 -4 -1 17 0 36 1 41 2 6 2 30 2 54 -1
26 3 48 11 53 18 12 49 5 61 -14z m-3025 -237 c14 -14 21 -16 24 -7 7 17 106
27 131 14 12 -7 22 -6 29 1 17 17 162 14 177 -4 11 -13 15 -13 33 0 16 11 50
15 128 15 110 0 122 -4 132 -45 4 -18 5 -18 6 3 1 30 35 42 115 42 45 0 67 -4
76 -16 19 -22 89 -54 96 -43 3 5 14 9 24 9 11 0 30 12 44 26 28 31 67 28 82
-7 l10 -22 26 27 c34 37 72 33 76 -7 3 -21 8 -27 19 -23 8 3 21 6 29 6 8 0 24
11 36 25 12 14 32 25 45 25 16 0 27 -8 33 -25 8 -22 15 -25 63 -25 29 0 58 -5
65 -12 9 -9 12 -9 12 0 0 8 18 12 49 12 41 0 51 4 65 25 20 31 49 32 77 4 12
-12 34 -25 50 -29 24 -7 29 -6 29 9 0 41 47 54 80 21 11 -11 23 -20 28 -20 4
0 13 9 20 20 17 27 43 25 76 -5 15 -14 35 -25 45 -25 23 0 33 -23 25 -55 -6
-26 5 -38 25 -26 9 6 10 11 2 15 -6 4 -11 20 -11 37 l0 29 69 0 c46 0 71 -4
74 -12 4 -10 8 -10 15 0 5 8 22 12 38 10 25 -3 29 -7 29 -33 0 -24 -5 -31 -24
-33 -15 -2 -30 3 -37 12 -11 15 -12 15 -18 0 -3 -8 -2 -23 4 -32 6 -11 9 -12
10 -4 0 9 11 12 33 10 28 -3 32 -6 32 -33 0 -27 -4 -30 -32 -33 -21 -2 -33 1
-33 9 0 8 -4 8 -13 1 -8 -7 -257 -10 -782 -9 l-770 2 -4 30 -4 30 -6 -30 -6
-30 -124 -3 c-84 -2 -128 1 -138 9 -10 9 -17 9 -25 1 -15 -15 -178 -16 -178
-2 0 6 -10 5 -26 -2 -19 -9 -30 -9 -44 0 -12 7 -21 8 -25 2 -9 -14 -129 -12
-143 2 -7 7 -12 42 -12 88 0 97 24 126 69 81z m3737 5 c17 -12 22 -12 39 0 28
20 228 20 245 -1 11 -13 15 -13 33 0 33 23 152 20 176 -4 10 -10 31 -23 47
-28 25 -8 29 -15 29 -46 0 -20 3 -37 8 -37 28 0 29 0 17 14 -6 8 -10 25 -8 38
3 23 5 23 133 23 l130 0 12 28 c15 33 51 36 78 7 21 -23 45 -26 45 -6 0 32 69
30 71 -2 1 -16 2 -16 6 0 5 20 30 30 54 23 16 -5 19 -17 19 -71 0 -43 4 -63
10 -59 7 4 8 28 4 66 -4 32 -3 60 2 60 37 7 456 4 460 -3 3 -4 14 -3 25 3 36
19 59 2 61 -44 l1 -42 4 37 c3 24 11 42 23 48 23 12 50 3 50 -17 0 -11 6 -10
26 6 34 27 80 27 96 2 10 -16 14 -17 22 -6 6 7 34 16 63 19 43 5 56 3 70 -11
17 -17 19 -17 36 0 18 18 67 23 83 7 6 -6 34 -6 79 1 56 8 72 7 83 -5 12 -12
18 -12 41 0 37 19 69 17 83 -5 9 -16 14 -17 22 -6 6 7 37 15 68 19 50 5 59 4
70 -13 11 -18 13 -18 24 -3 11 15 29 17 109 12 11 -1 91 1 177 3 127 3 160 2
170 -10 9 -11 13 -11 19 -1 10 15 255 22 265 7 3 -5 11 -6 17 -2 7 4 40 8 74
10 53 2 65 -1 77 -18 11 -16 12 -28 4 -50 -7 -20 -6 -39 2 -64 20 -59 12 -62
-178 -63 -93 0 -172 4 -179 9 -7 7 -14 6 -18 -1 -8 -13 -52 -13 -61 1 -4 8 -9
8 -17 0 -14 -14 -54 -14 -62 -1 -4 7 -11 7 -18 2 -7 -5 -112 -9 -237 -8 l-225
1 -4 45 -5 45 -5 -45 -6 -45 -265 -2 c-227 -2 -267 -1 -276 12 -10 14 -12 14
-18 0 -8 -23 -247 -22 -270 1 -15 14 -16 14 -16 0 0 -22 -58 -22 -67 0 -5 14
-7 14 -14 1 -7 -12 -41 -14 -191 -15 -111 0 -188 4 -195 10 -9 7 -13 7 -13 0
0 -7 -27 -11 -71 -11 -54 0 -72 4 -76 16 -5 14 -7 14 -15 0 -7 -14 -41 -16
-230 -16 -137 0 -226 3 -234 10 -8 7 -14 7 -19 -1 -9 -15 -247 -13 -264 3 -11
10 -14 10 -18 0 -6 -16 -248 -18 -258 -3 -4 7 -12 7 -25 0 -27 -15 -243 -13
-258 2 -9 9 -15 9 -24 0 -15 -15 -231 -17 -258 -2 -13 7 -21 7 -25 0 -3 -5
-37 -10 -75 -10 -60 0 -71 -3 -80 -21 -8 -14 -19 -19 -38 -17 -25 3 -27 6 -27
53 0 49 1 50 33 53 17 2 32 6 32 10 0 4 -15 7 -32 7 -30 0 -33 3 -33 30 l0 30
109 3 c66 1 113 -2 121 -8 9 -8 15 -8 20 0 4 6 54 10 130 10 l124 0 4 -52 3
-53 2 62 c3 85 15 93 147 93 70 0 107 -4 121 -14z m-1281 -151 c0 -27 -3 -30
-30 -30 -27 0 -30 4 -33 33 -3 32 -2 33 30 30 29 -3 33 -6 33 -33z m-2591 -81
c9 -3 16 -13 16 -22 0 -13 2 -13 18 1 25 22 67 31 91 17 15 -8 27 -8 42 0 15
9 26 8 42 -2 18 -12 26 -12 47 -2 33 17 212 17 236 0 14 -11 22 -11 43 0 29
15 206 17 233 3 10 -5 19 -20 19 -32 2 -22 2 -22 6 1 6 29 39 42 112 42 41 0
65 -5 82 -18 38 -30 88 -51 95 -41 3 5 13 9 23 9 10 0 30 11 45 25 15 14 33
25 41 25 15 0 45 -27 45 -41 0 -5 22 -9 49 -9 28 0 53 -5 57 -11 11 -19 8
-119 -4 -131 -7 -7 -53 -10 -129 -9 -65 2 -125 3 -133 3 -8 0 -70 -1 -137 -2
-67 -1 -127 1 -133 5 -5 3 -11 18 -11 33 -2 27 -2 27 -6 2 -3 -14 -8 -29 -12
-33 -14 -14 -239 -11 -257 4 -12 10 -17 10 -23 0 -6 -9 -42 -12 -132 -11 -68
1 -184 1 -258 0 -86 0 -139 4 -147 11 -10 8 -14 36 -14 90 0 64 3 80 18 88 21
13 17 12 36 5z m1458 -11 c12 -11 18 -30 18 -62 0 -35 5 -49 20 -59 19 -11 20
-10 20 22 0 18 -7 39 -15 46 -26 21 -18 48 18 59 59 20 73 4 68 -76 -2 -22 3
-35 17 -42 24 -13 32 -5 32 29 0 37 17 50 66 50 33 0 45 5 58 25 20 30 35 31
70 4 14 -11 39 -24 55 -29 24 -7 30 -5 34 11 8 28 45 38 149 38 100 -1 108 -3
126 -34 10 -18 11 -18 12 -2 0 24 39 37 111 37 47 0 63 -4 80 -21 12 -12 33
-25 48 -28 22 -6 26 -13 28 -47 0 -21 4 -48 8 -60 11 -35 -14 -43 -140 -45
-101 -2 -120 1 -131 15 -11 16 -13 16 -22 1 -8 -15 -26 -17 -130 -15 -67 0
-130 1 -139 2 -10 0 -74 -1 -142 -2 -93 -2 -125 1 -131 11 -7 10 -11 10 -24 0
-23 -19 -86 -18 -100 1 -10 13 -14 14 -22 3 -5 -7 -23 -16 -41 -20 -46 -9 -76
23 -68 72 3 24 0 44 -10 59 -22 34 -19 51 13 62 38 14 43 14 64 -5z m1853 3
c15 -11 22 -11 44 0 14 8 51 14 82 14 43 0 62 -5 89 -25 19 -14 42 -25 52 -25
15 0 18 -9 20 -47 1 -47 1 -47 7 12 7 72 25 85 117 85 51 0 65 -4 88 -25 15
-14 36 -25 47 -25 11 0 22 -7 26 -16 5 -15 7 -15 15 0 11 20 127 23 146 4 9
-9 12 -9 12 1 0 8 11 11 33 9 27 -2 33 -8 35 -31 2 -18 -2 -29 -13 -33 -14 -6
-14 -7 1 -18 9 -7 14 -22 12 -37 -2 -19 -10 -25 -35 -27 -21 -2 -33 1 -33 9 0
8 -4 8 -15 -1 -14 -12 -40 -13 -155 -8 -8 0 -69 0 -135 0 -66 -1 -129 -1 -140
0 -11 0 -75 -1 -142 -2 -83 -2 -128 1 -137 9 -10 8 -16 9 -21 1 -4 -6 -54 -10
-130 -10 -76 0 -126 4 -130 10 -5 8 -12 7 -22 -2 -10 -8 -40 -12 -79 -11 -55
1 -66 -1 -75 -18 -16 -31 -60 -22 -72 14 -14 43 5 77 43 77 24 0 31 5 36 28 3
15 7 33 10 40 5 17 144 17 144 0 0 -9 3 -9 12 0 7 7 33 12 59 12 31 0 51 5 60
16 28 34 110 45 144 20z m1356 4 c14 -8 19 -21 19 -49 0 -42 -18 -65 -47 -59
-31 6 -27 118 4 118 2 0 13 -5 24 -10z m177 -52 c-3 -44 -24 -66 -52 -55 -23
9 -23 92 1 106 32 17 54 -5 51 -51z m112 42 c14 -14 20 -33 20 -64 0 -31 5
-46 16 -50 10 -4 14 -15 12 -33 -2 -22 -10 -29 -38 -35 -57 -11 -80 10 -80 77
0 30 -4 55 -10 55 -5 0 -10 11 -10 24 0 17 8 27 28 34 38 15 40 14 62 -8z
m140 10 c8 1 51 1 95 0 44 -1 89 -1 100 -1 23 1 253 2 275 2 8 -1 69 0 135 2
71 1 127 -2 140 -9 16 -8 24 -7 33 3 17 18 29 16 51 -6 15 -15 21 -16 25 -6 8
22 64 29 90 12 13 -9 27 -12 32 -8 16 15 113 19 131 6 13 -10 22 -9 42 1 30
16 60 18 80 5 9 -6 22 -6 33 0 12 6 25 6 38 -1 19 -10 20 -19 18 -98 l-3 -87
-32 -3 c-26 -3 -33 0 -33 15 -1 17 -1 17 -10 1 -9 -15 -35 -17 -236 -17 -196
-1 -226 1 -231 15 -5 14 -7 14 -15 1 -7 -13 -57 -15 -381 -15 -269 0 -374 3
-379 11 -6 9 -8 9 -8 0 0 -20 -59 -16 -67 4 -3 9 -2 33 4 55 6 21 6 41 2 44
-5 3 -9 18 -9 34 0 31 25 53 50 44 8 -4 22 -5 30 -4z m1410 0 c13 2 134 1 195
-2 11 0 54 2 95 6 41 3 81 2 89 -3 8 -5 24 -6 36 -1 15 6 29 4 43 -6 16 -11
22 -11 31 -1 13 16 234 15 253 -1 9 -7 18 -6 32 3 20 15 45 9 62 -13 9 -13 12
-13 17 2 8 19 67 22 85 4 16 -16 15 -43 -3 -58 -9 -7 -15 -29 -15 -50 0 -66
-4 -70 -81 -70 -47 0 -69 4 -69 12 0 9 -3 9 -12 0 -15 -15 -65 -16 -74 -1 -4
8 -9 8 -17 0 -6 -6 -30 -11 -53 -11 -24 0 -46 5 -50 11 -4 8 -9 8 -17 0 -6 -6
-20 -11 -32 -11 -12 0 -26 5 -32 11 -8 8 -13 8 -17 0 -9 -14 -66 -14 -66 0 0
8 -4 8 -12 1 -8 -6 -87 -10 -200 -10 -165 0 -188 2 -188 16 0 13 -2 13 -13 -2
-8 -11 -23 -17 -38 -14 -23 3 -24 6 -27 92 -3 95 4 112 43 100 11 -3 27 -5 35
-4z m-3912 -69 c2 -15 -3 -30 -12 -37 -15 -11 -15 -12 -1 -18 11 -4 15 -15 13
-33 -2 -23 -8 -29 -35 -31 -32 -3 -33 -2 -33 32 0 20 5 36 11 36 6 0 4 9 -4
21 -24 33 -10 61 27 57 24 -2 32 -8 34 -27z m126 6 c9 -15 7 -22 -11 -37 -22
-17 -22 -18 -3 -23 22 -6 26 -39 10 -81 -12 -32 -54 -36 -70 -7 -14 28 -12 68
4 83 12 11 12 15 -1 30 -9 10 -12 25 -8 38 5 17 13 20 37 18 17 -2 36 -11 42
-21z m1561 13 c5 -8 11 -8 20 0 8 6 41 10 77 8 62 -3 63 -4 67 -33 l4 -30 6
30 c6 30 7 30 79 33 l72 3 -3 -73 -2 -72 -35 -7 c-55 -12 -103 2 -111 31 -7
23 -7 23 -8 3 -1 -12 -6 -25 -12 -29 -19 -11 -117 -8 -133 5 -10 8 -16 9 -21
1 -8 -12 -65 -14 -65 -1 0 5 -3 16 -6 24 -3 8 2 22 11 31 9 9 12 16 7 16 -14
0 -23 30 -17 51 7 21 59 27 70 9z m-3495 -254 c9 -21 9 -21 9 2 1 18 7 22 32
22 18 0 37 -7 43 -16 7 -8 30 -18 53 -21 34 -4 44 -2 59 16 28 32 72 28 88 -9
8 -20 15 -27 22 -20 7 7 58 10 130 8 l119 -3 2 -67 c2 -57 0 -69 -16 -77 -23
-13 -508 -8 -521 5 -4 5 -10 20 -13 34 -4 24 -4 24 -6 -3 -1 -19 -8 -30 -23
-36 -37 -13 -199 -11 -235 4 -24 10 -33 11 -36 2 -3 -11 -113 -14 -252 -9 -16
1 -85 0 -153 -1 -112 -2 -125 0 -138 17 -12 17 -14 17 -14 4 0 -23 -25 -28
-90 -20 l-55 7 0 90 c0 88 1 90 24 93 15 2 30 -3 37 -12 10 -14 13 -15 24 -1
18 22 246 22 270 0 10 -9 32 -20 49 -25 29 -8 33 -6 41 16 9 24 11 24 134 24
91 0 125 -3 129 -12 3 -10 7 -10 18 -1 9 7 54 13 105 15 126 4 154 0 164 -26z
m1718 22 c39 2 54 -2 58 -13 8 -19 33 -19 40 0 8 21 59 19 92 -4 15 -11 37
-22 50 -26 18 -5 22 -2 22 14 0 26 17 30 142 32 71 1 112 -2 122 -10 10 -8 16
-9 21 -1 3 5 25 9 48 9 23 -1 77 -1 120 1 50 1 83 -3 92 -10 11 -9 19 -9 28
-2 7 6 51 11 97 12 148 2 160 1 160 -15 0 -19 10 -19 25 1 9 13 30 16 110 15
54 -1 101 -3 103 -6 3 -3 7 -28 10 -57 3 -36 11 -57 25 -68 14 -12 18 -23 13
-38 -14 -42 -92 -43 -113 -2 -12 24 -13 24 -13 3 0 -16 -8 -23 -30 -28 -48
-11 -106 3 -118 28 l-11 22 0 -22 c-1 -28 -30 -34 -156 -27 -114 5 -113 5
-217 -1 -59 -4 -80 -1 -92 10 -9 9 -17 11 -21 5 -8 -13 -52 -13 -60 0 -4 6
-14 4 -28 -5 -18 -11 -48 -13 -137 -10 -63 3 -122 5 -130 5 -8 0 -68 -1 -134
-1 -69 -1 -122 3 -128 9 -7 7 -18 6 -33 -4 -17 -11 -41 -13 -96 -9 -41 3 -83
5 -94 4 -11 0 -28 0 -37 0 -21 1 -9 1 -218 1 -91 0 -172 0 -180 0 -252 -7
-437 -7 -456 0 -22 9 -24 15 -24 68 0 32 5 63 12 70 7 7 42 12 85 12 61 0 76
3 90 20 19 21 77 28 88 10 5 -7 11 -8 19 -1 7 6 153 10 370 10 197 0 361 3
364 6 3 3 20 3 37 -1 16 -4 54 -7 83 -6z m2871 1 c175 -1 271 -5 271 -11 0 -7
5 -7 13 0 16 14 185 14 193 0 3 -5 11 -4 19 2 20 16 245 16 255 0 5 -9 9 -9
14 -1 10 16 258 15 274 -1 9 -9 12 -9 12 0 0 15 807 17 826 1 8 -7 14 -7 19 1
9 15 51 12 65 -5 11 -14 14 -13 24 1 16 21 75 15 90 -9 8 -13 7 -24 -6 -48
-10 -17 -18 -46 -18 -64 0 -52 -21 -66 -88 -58 -31 3 -58 10 -60 14 -2 5 -15
1 -29 -8 -20 -13 -29 -14 -44 -5 -13 8 -26 9 -44 2 -38 -14 -71 -12 -89 5 -9
10 -17 11 -21 5 -4 -6 -23 -11 -43 -11 -20 0 -49 0 -64 0 -16 0 -36 0 -45 0
-246 1 -392 1 -408 0 -11 0 -29 0 -40 0 -11 0 -29 0 -40 0 -11 0 -29 0 -40 0
-11 0 -29 0 -40 -1 -11 0 -56 0 -100 1 -44 1 -87 1 -95 1 -24 -2 -232 -3 -265
-2 -16 1 -40 1 -52 2 -13 0 -31 0 -40 0 -10 1 -33 -2 -51 -6 -22 -4 -40 -1
-57 10 -14 9 -25 12 -25 6 0 -6 -19 -11 -42 -11 -24 0 -52 0 -63 0 -11 0 -29
0 -40 0 -11 1 -114 0 -230 -3 -115 -2 -220 0 -232 5 -21 8 -23 15 -23 88 0 51
4 82 13 89 13 11 57 20 69 15 4 -2 128 -4 277 -4z m-805 -61 c8 -13 6 -21 -7
-36 -16 -17 -16 -21 -2 -32 33 -27 11 -100 -30 -100 -38 0 -62 69 -35 96 8 8
7 19 -1 37 -9 21 -9 30 1 42 16 20 59 16 74 -7z m433 -48 c2 -51 -1 -68 -14
-77 -20 -15 -72 -17 -107 -3 -24 9 -26 14 -26 68 0 33 5 63 12 70 8 8 35 12
73 10 l60 -3 2 -65z m-1001 -37 c5 -19 2 -30 -11 -40 -11 -7 -22 -13 -25 -13
-3 0 -14 6 -25 13 -13 10 -16 21 -11 40 5 22 12 27 36 27 24 0 31 -5 36 -27z
m122 -5 c6 -47 -59 -62 -73 -17 -9 27 13 51 44 47 20 -2 27 -9 29 -30z m160 0
c3 -29 -25 -52 -52 -42 -41 16 -22 77 22 72 21 -2 28 -9 30 -30z m120 20 c28
-28 6 -98 -31 -98 -31 0 -47 18 -47 55 0 36 15 55 45 55 12 0 26 -5 33 -12z
m282 -3 c8 -10 9 -26 3 -52 -8 -33 -12 -38 -38 -38 -28 0 -30 3 -33 39 -2 21
-1 44 2 52 7 18 50 18 66 -1z m158 -21 c2 -22 -2 -33 -14 -38 -30 -11 -54 3
-54 33 0 35 8 43 40 39 20 -2 26 -9 28 -34z m-4991 -100 c5 -15 7 -15 15 0 13
24 65 21 73 -4 5 -17 15 -20 60 -20 44 0 56 4 65 20 14 26 52 26 88 1 47 -33
69 -35 76 -6 8 32 47 34 84 4 l26 -20 8 20 c8 22 61 30 73 11 3 -6 24 -19 45
-29 l39 -19 3 27 c2 21 9 27 34 29 19 2 38 -3 47 -12 20 -20 47 -21 47 -1 0
20 53 20 70 0 7 -8 27 -19 44 -23 27 -7 31 -13 32 -45 1 -51 14 -60 14 -9 0
37 3 41 35 52 19 6 39 18 43 26 6 12 25 14 78 12 l69 -3 3 -55 c2 -41 8 -59
21 -67 16 -10 19 -8 24 24 9 51 23 63 77 63 34 0 52 5 65 20 24 27 81 27 95 1
5 -11 10 -38 10 -60 0 -26 5 -43 16 -49 9 -5 14 -18 12 -33 -4 -32 -48 -47
-90 -31 -21 8 -36 8 -42 2 -14 -14 -87 -12 -117 4 -21 11 -29 11 -44 0 -24
-18 -247 -14 -253 4 -3 9 -7 9 -17 -1 -10 -10 -71 -12 -276 -10 -145 2 -268 3
-274 3 -100 -4 -349 -4 -354 0 -5 3 -11 12 -14 20 -4 12 -6 12 -6 -1 -1 -22
-28 -31 -52 -19 -16 9 -19 22 -19 94 0 45 3 86 7 89 13 13 54 7 60 -9z m2335
3 c6 -9 10 -9 16 -1 9 15 251 17 268 3 8 -7 14 -6 19 1 8 13 605 12 622 -1 7
-7 14 -6 18 1 9 14 168 13 183 -2 9 -9 15 -9 24 0 8 8 52 12 130 12 113 0 119
-1 127 -22 l8 -22 12 22 c10 19 20 22 75 22 55 0 64 -3 69 -20 4 -17 14 -20
55 -20 27 0 54 -6 60 -12 14 -18 14 -126 -1 -135 -15 -9 -183 -16 -223 -8 -19
3 -35 14 -42 28 l-11 22 0 -22 c-1 -29 -42 -37 -163 -29 -109 7 -111 7 -209 0
-61 -4 -79 -2 -92 10 -11 11 -17 12 -19 4 -3 -9 -81 -12 -309 -10 -167 0 -312
1 -321 1 -29 0 -67 1 -85 1 -10 0 -36 -2 -57 -6 -32 -5 -42 -3 -54 12 -10 13
-16 15 -19 7 -6 -16 -63 -17 -63 -1 0 6 -7 4 -18 -5 -21 -19 -48 -22 -57 -6
-4 6 -14 7 -24 3 -23 -10 -364 -12 -377 -2 -7 5 -22 4 -36 -1 -14 -5 -31 -5
-40 0 -10 6 -27 5 -43 -1 -34 -13 -196 -13 -230 0 -25 9 -26 13 -23 72 3 62 4
63 41 81 20 9 37 21 37 26 0 15 743 12 752 -2z m2653 -42 c0 -49 -1 -50 -30
-50 -28 0 -30 3 -33 39 -5 54 3 68 35 64 26 -3 28 -6 28 -53z m257 35 c21 -20
22 -20 42 -1 19 17 39 19 220 19 190 1 198 0 203 -19 6 -20 6 -20 20 1 12 17
25 20 78 20 55 0 65 -3 70 -20 5 -16 15 -20 54 -20 27 0 53 -6 59 -12 14 -17
14 -126 0 -134 -15 -10 -186 -16 -226 -9 -21 4 -36 14 -42 28 l-9 22 0 -21
c-1 -12 -8 -25 -17 -28 -26 -10 -149 -7 -160 4 -7 7 -19 7 -35 1 -16 -5 -31
-5 -42 0 -11 7 -24 6 -38 -2 -21 -11 -231 -5 -251 7 -9 6 -11 168 -1 177 13
14 54 6 75 -13z m1236 8 c9 -9 12 -9 12 0 0 15 56 16 66 1 4 -8 9 -8 17 0 15
15 50 14 65 -1 8 -8 12 -8 12 -1 0 8 119 11 407 11 348 1 410 -1 424 -14 15
-13 17 -13 22 1 7 17 49 20 78 5 23 -13 25 -39 4 -66 -8 -10 -15 -36 -15 -56
0 -62 -4 -63 -226 -61 -109 1 -207 2 -216 2 -10 0 -29 0 -43 0 -14 0 -33 0
-42 0 -10 0 -74 0 -143 0 -69 1 -132 1 -140 1 -8 0 -31 -2 -51 -6 -26 -4 -41
-2 -50 9 -12 12 -17 12 -36 0 -15 -10 -27 -12 -40 -5 -12 7 -25 7 -36 1 -19
-11 -57 -3 -57 12 0 5 -11 2 -25 -7 -20 -13 -39 -15 -93 -10 -83 8 -96 8 -149
0 -24 -3 -57 -1 -74 5 -21 7 -37 7 -50 0 -38 -20 -78 28 -48 58 8 8 7 16 -2
30 -23 37 14 78 50 56 9 -6 25 -7 36 -2 34 13 135 11 135 -3 1 -7 7 2 15 20
l14 32 84 0 c51 0 88 -5 95 -12z m-2334 -50 c8 -13 7 -23 -2 -39 -10 -15 -11
-24 -3 -32 31 -31 -10 -78 -49 -57 -22 12 -26 40 -8 58 9 9 9 15 0 24 -26 26
-4 71 32 66 10 -2 24 -11 30 -20z m966 7 c13 -16 5 -55 -12 -55 -6 0 -3 -9 6
-19 31 -34 -3 -82 -47 -66 -21 9 -27 41 -12 62 11 14 11 21 -1 37 -28 40 34
80 66 41z m-856 -71 c20 -8 21 -48 1 -64 -19 -15 -52 -4 -60 21 -11 35 20 58
59 43z m160 0 c20 -8 21 -48 1 -64 -17 -14 -51 -5 -59 16 -3 9 -1 24 4 35 11
20 27 23 54 13z m130 -10 c16 -16 9 -45 -14 -59 -17 -10 -49 5 -55 26 -13 41
37 65 69 33z m166 -3 c14 -28 -18 -66 -48 -57 -26 9 -38 42 -22 61 18 21 57
18 70 -4z m118 -17 c2 -22 -2 -33 -14 -38 -30 -11 -54 3 -54 33 0 35 8 43 40
39 20 -2 26 -9 28 -34z m-4831 -140 c5 -15 7 -15 15 0 10 18 53 22 64 5 4 -8
9 -8 17 0 17 17 52 13 78 -8 19 -14 45 -20 110 -22 79 -4 87 -2 95 16 12 28
56 31 79 5 21 -23 35 -26 35 -6 0 30 59 35 85 6 10 -11 26 -20 35 -20 9 0 21
-5 28 -12 9 -9 12 -8 12 8 0 45 45 57 87 24 20 -16 41 -20 97 -20 43 0 77 -5
84 -12 7 -7 12 -39 12 -75 0 -57 -2 -63 -22 -68 -13 -3 -135 -4 -272 -2 -188
1 -250 5 -253 14 -4 10 -9 9 -20 -3 -13 -12 -42 -15 -167 -13 -173 2 -186 4
-187 27 0 12 -3 11 -9 -5 -10 -25 -39 -30 -58 -11 -17 17 -16 175 1 181 25 11
48 7 54 -9z m1090 -4 c4 -16 15 -20 62 -22 47 -3 59 1 78 20 20 20 31 22 138
22 107 0 117 -2 122 -19 5 -19 5 -19 24 0 16 16 34 19 132 19 68 0 117 -4 124
-11 8 -8 17 -8 31 0 26 14 239 15 247 1 4 -6 12 -7 18 -3 19 12 169 14 183 2
9 -7 18 -6 32 2 16 10 26 10 46 1 14 -6 28 -7 31 -3 6 11 595 11 617 0 10 -6
19 -5 23 1 3 5 44 10 91 10 66 0 86 -3 90 -15 5 -13 8 -13 27 0 12 9 44 15 74
15 42 0 54 -4 63 -20 8 -16 21 -20 58 -20 27 0 53 -5 60 -12 8 -8 15 -8 25 1
10 8 53 11 133 9 l119 -3 3 -47 c2 -27 7 -48 12 -48 14 0 18 24 6 43 -8 12 -8
22 0 35 9 13 28 18 91 20 65 2 84 7 98 22 33 37 85 20 85 -28 0 -21 1 -22 16
-8 10 10 33 16 64 16 32 0 50 5 53 14 8 21 73 32 92 16 10 -8 15 -30 15 -61 0
-27 4 -49 10 -49 18 0 31 -39 20 -60 -8 -15 -21 -20 -50 -20 -21 0 -42 5 -45
10 -4 6 -13 7 -23 1 -9 -5 -104 -10 -211 -10 -162 -1 -197 2 -211 14 -16 14
-18 14 -23 0 -5 -12 -27 -15 -122 -15 -64 0 -125 5 -135 10 -13 7 -21 7 -25 0
-10 -16 -227 -13 -250 4 -16 11 -21 11 -33 0 -17 -18 -163 -19 -180 -2 -7 7
-15 8 -24 1 -16 -12 -677 -12 -696 1 -8 5 -18 4 -25 -3 -13 -13 -76 -14 -96
-2 -9 6 -21 5 -33 -2 -14 -9 -23 -9 -39 1 -15 10 -24 11 -32 3 -18 -18 -232
-14 -250 4 -13 13 -16 13 -27 0 -10 -12 -38 -15 -126 -15 -101 0 -116 2 -134
20 -14 14 -20 16 -20 6 0 -22 -23 -26 -139 -26 -70 0 -111 4 -119 12 -9 9 -15
9 -24 0 -14 -14 -235 -17 -256 -3 -9 5 -12 27 -10 72 3 63 4 64 40 81 20 10
39 22 43 28 11 18 56 12 62 -10z m3451 8 c17 -17 15 -74 -4 -93 -14 -14 -19
-14 -38 -2 -24 16 -34 71 -15 93 14 17 41 18 57 2z m440 3 c9 -5 12 -24 10
-52 -3 -42 -5 -44 -33 -44 -28 0 -30 3 -33 39 -2 21 -1 44 2 52 6 16 34 18 54
5z m690 -3 c7 -7 12 -33 12 -59 0 -32 5 -49 15 -53 22 -8 20 -63 -2 -70 -34
-9 -216 -5 -235 5 -14 8 -23 8 -31 0 -14 -14 -222 -15 -248 -1 -15 9 -19 22
-19 68 0 32 5 63 12 70 19 19 242 16 258 -3 11 -13 14 -13 27 0 8 9 33 15 58
15 24 0 47 5 50 11 17 26 83 37 103 17z m806 -3 c12 -13 15 -13 20 0 7 20 55
19 63 -1 5 -15 7 -15 15 0 11 20 42 21 61 1 12 -12 16 -12 20 -1 4 10 77 13
372 13 340 0 367 -2 376 -18 12 -24 12 -135 -1 -160 -11 -20 -54 -26 -65 -9
-4 6 -13 7 -23 1 -23 -11 -371 -11 -378 0 -3 5 -11 6 -17 2 -18 -11 -130 -13
-142 -3 -6 5 -17 5 -25 0 -8 -6 -32 -10 -53 -10 -31 0 -40 4 -44 20 -5 20 -6
20 -19 2 -10 -15 -26 -19 -75 -19 -53 -1 -62 2 -66 18 -5 19 -6 19 -20 -1 -15
-21 -75 -28 -102 -11 -9 6 -21 5 -32 -2 -13 -8 -24 -8 -43 1 -16 7 -28 8 -31
2 -4 -6 -57 -10 -120 -10 -139 0 -149 6 -143 88 3 31 11 58 19 63 22 14 233
11 247 -3 9 -9 12 -8 12 8 0 33 16 40 100 41 57 2 83 -2 94 -12z m-2046 -62
c2 -19 -1 -33 -8 -33 -6 0 -4 -10 5 -24 12 -18 14 -33 7 -58 -7 -27 -13 -34
-40 -36 -28 -3 -31 0 -37 31 -4 20 -2 44 4 56 9 15 9 27 1 41 -16 31 4 62 38
58 22 -2 28 -9 30 -35z m686 15 c8 -13 7 -23 -2 -39 -11 -18 -11 -24 2 -38 21
-23 4 -86 -25 -94 -42 -11 -73 48 -49 94 8 13 7 25 0 39 -16 30 4 62 37 58 14
-2 31 -11 37 -20z m710 16 c18 -7 22 -49 6 -59 -6 -4 -4 -14 4 -28 33 -50 -19
-131 -59 -91 -17 18 -20 66 -5 94 7 13 7 21 0 25 -14 8 -13 38 2 53 13 13 28
15 52 6z m130 -16 c8 -13 8 -23 -2 -38 -10 -16 -10 -24 0 -40 25 -40 -32 -81
-62 -45 -11 13 -11 23 -3 46 7 17 7 31 2 35 -13 8 -11 38 3 52 17 17 48 11 62
-10z m-1250 -74 c9 -8 16 -19 16 -24 0 -15 -31 -40 -50 -40 -27 0 -44 34 -30
60 13 24 43 26 64 4z m110 10 c10 -4 16 -18 16 -35 0 -22 -6 -30 -24 -35 -33
-8 -46 2 -46 35 0 40 15 50 54 35z m-4819 -131 c10 -10 19 -12 23 -6 11 16
121 24 134 9 10 -11 15 -10 26 1 20 20 85 16 112 -7 13 -11 29 -20 36 -20 7 0
18 -2 26 -5 7 -3 17 5 23 17 14 31 42 34 77 8 l30 -22 14 21 c19 26 44 27 77
1 14 -11 32 -20 40 -20 9 0 19 -6 23 -12 6 -9 10 -5 14 11 11 48 44 51 102 9
14 -10 20 -9 31 5 14 20 82 33 121 23 18 -4 26 -13 27 -29 l0 -22 9 22 c5 12
17 24 27 27 10 2 113 3 228 1 116 -3 216 -5 223 -4 6 0 24 0 40 0 15 0 38 0
52 1 28 2 250 1 265 -1 6 -1 21 1 35 4 18 5 33 0 49 -14 20 -17 38 -21 101
-21 46 0 81 -5 88 -12 9 -9 12 -6 12 15 0 39 41 47 82 17 30 -22 32 -22 45 -5
9 13 30 20 72 23 52 4 60 2 75 -19 12 -17 16 -19 16 -7 0 22 30 28 146 28 75
0 105 -4 113 -14 10 -12 16 -12 39 0 47 24 132 16 132 -12 0 -10 14 -14 49
-14 29 0 53 -6 60 -14 9 -11 18 -10 51 6 21 11 44 26 51 34 16 20 46 17 66 -6
12 -14 30 -20 58 -20 60 0 68 -10 69 -77 0 -32 -3 -64 -7 -70 -10 -16 -234
-18 -257 -3 -9 5 -19 5 -26 -1 -8 -6 -61 -8 -136 -6 -151 6 -123 6 -252 0
-124 -5 -156 0 -156 24 0 14 -3 13 -16 -5 -14 -21 -23 -22 -133 -22 -78 0
-121 4 -129 12 -9 9 -15 9 -24 0 -16 -16 -239 -17 -256 0 -8 8 -15 8 -26 -1
-22 -18 -336 -12 -343 7 -5 12 -7 12 -14 0 -6 -12 -49 -14 -226 -15 -137 -1
-223 3 -230 9 -7 6 -14 20 -14 32 -1 20 -2 20 -6 1 -11 -43 -14 -44 -281 -44
-152 0 -261 4 -268 10 -8 7 -14 6 -19 -1 -3 -6 -44 -10 -96 -10 -73 0 -91 3
-96 16 -5 15 -7 15 -15 0 -11 -20 -42 -21 -61 -1 -13 13 -16 13 -21 0 -7 -19
-116 -21 -134 -3 -7 7 -12 42 -12 88 0 95 23 125 65 83z m3291 9 c6 -4 14 -17
18 -29 6 -19 11 -21 26 -13 10 6 41 10 69 10 38 0 52 -4 58 -17 10 -22 9 -115
-1 -131 -5 -8 -42 -12 -111 -12 -96 0 -105 2 -116 21 -6 12 -9 39 -6 60 3 26
0 42 -9 50 -8 6 -14 20 -14 31 0 27 59 48 86 30z m278 2 c12 -4 16 -20 16 -54
0 -48 18 -78 40 -65 15 9 12 41 -5 55 -16 13 -20 46 -7 53 4 3 21 8 38 11 43
10 64 -13 64 -69 0 -30 5 -47 16 -53 10 -6 14 -19 12 -38 -3 -26 -7 -29 -46
-32 -24 -2 -49 1 -56 7 -9 7 -16 7 -23 0 -6 -6 -30 -9 -54 -7 l-44 3 -3 60
c-2 39 -8 63 -18 68 -46 26 17 81 70 61z m287 -4 c11 -6 19 -21 19 -36 0 -23
1 -24 16 -10 21 21 117 22 134 1 11 -13 14 -13 27 0 19 19 232 22 251 3 9 -9
18 -9 37 0 27 12 211 17 239 6 9 -4 17 -19 17 -38 2 -30 2 -30 6 -3 7 42 31
49 156 43 62 -2 119 -4 127 -4 8 0 71 1 140 1 l125 2 3 -69 c2 -38 -1 -73 -6
-78 -14 -14 -232 -10 -249 4 -10 8 -17 8 -25 0 -13 -13 -223 -17 -252 -6 -9 3
-17 16 -17 28 -1 20 -2 20 -6 1 -3 -11 -10 -23 -17 -27 -18 -12 -225 -9 -248
3 -14 8 -23 8 -31 0 -15 -15 -239 -15 -255 1 -8 8 -15 8 -26 -1 -9 -8 -48 -11
-117 -9 l-104 3 -3 55 c-2 31 -10 62 -18 72 -22 23 -14 51 16 59 36 10 39 10
61 -1z m2414 -1 c4 -6 14 -7 24 -3 9 3 50 8 93 10 58 3 80 1 91 -11 13 -13 16
-13 21 0 7 19 41 19 58 2 10 -12 15 -12 26 0 17 17 37 17 55 -2 12 -11 16 -12
20 -1 4 10 46 12 194 10 103 -2 194 -3 201 -3 30 0 63 0 75 -1 6 0 48 2 92 4
60 4 85 2 102 -10 13 -8 23 -10 23 -4 0 5 20 10 44 10 36 0 46 -4 51 -20 4
-12 0 -31 -9 -45 -9 -13 -16 -42 -16 -63 0 -21 -5 -43 -12 -50 -15 -15 -174
-16 -183 -2 -4 7 -11 7 -18 2 -7 -5 -39 -10 -72 -10 -33 0 -65 5 -72 10 -7 5
-14 5 -18 -2 -3 -5 -26 -10 -50 -10 -24 0 -47 5 -50 10 -4 7 -11 7 -18 2 -7
-5 -67 -9 -135 -10 -102 -1 -124 2 -129 14 -5 12 -8 13 -14 3 -5 -8 -33 -14
-74 -16 -52 -2 -67 1 -72 14 -5 14 -7 14 -15 -1 -7 -13 -25 -16 -91 -15 -45 1
-90 6 -99 10 -10 6 -19 5 -23 -1 -4 -6 -56 -10 -125 -10 -133 0 -140 4 -140
72 0 55 10 76 41 87 16 6 37 17 45 26 18 18 169 22 179 4z m-835 -44 c11 -13
14 -13 27 1 12 12 38 14 132 12 l116 -3 0 -75 0 -75 -119 -3 c-78 -2 -123 1
-132 9 -10 8 -18 8 -27 0 -19 -15 -233 -16 -252 -1 -23 19 -21 126 3 139 9 6
67 11 128 11 86 0 114 -3 124 -15z m438 -2 c5 -9 7 -35 4 -57 -5 -39 -4 -40
12 -23 10 9 25 17 34 17 24 -1 52 -24 52 -43 0 -25 -21 -65 -37 -71 -25 -10
-53 13 -53 42 -1 23 -2 25 -11 10 -8 -14 -23 -18 -67 -18 -32 0 -63 5 -70 12
-7 7 -12 38 -12 70 0 68 10 77 87 78 38 0 54 -4 61 -17z m-5594 -233 c16 -6
27 -6 31 0 9 15 42 12 58 -5 12 -11 16 -12 20 -2 5 17 222 23 252 7 17 -9 28
-9 43 -1 31 17 148 14 165 -4 13 -13 16 -13 21 0 7 20 40 19 60 -1 9 -8 16
-11 16 -5 0 19 41 23 59 6 15 -13 19 -13 24 -2 4 11 47 13 234 11 337 -4 297
-5 406 3 60 3 83 1 102 -11 16 -11 25 -12 27 -4 2 6 32 13 66 16 59 4 62 3 74
-23 11 -25 16 -27 54 -21 27 3 48 1 60 -9 14 -10 22 -10 32 -2 8 6 62 12 123
14 96 2 112 0 129 -17 15 -15 20 -16 24 -5 3 8 18 18 33 21 15 4 34 16 41 26
18 24 54 20 66 -8 8 -18 16 -21 46 -17 21 3 47 0 59 -6 20 -11 22 -19 19 -79
l-3 -67 -125 -3 c-103 -2 -127 0 -136 13 -10 13 -13 13 -24 1 -10 -13 -55 -15
-268 -15 -173 0 -260 4 -269 11 -10 8 -17 8 -25 0 -15 -15 -174 -16 -183 -2
-4 6 -12 7 -18 3 -7 -5 -130 -9 -275 -9 -225 -1 -264 1 -269 13 -5 13 -7 13
-15 0 -12 -22 -137 -21 -145 0 -5 13 -7 13 -15 -1 -7 -12 -25 -16 -84 -16 -41
0 -84 5 -95 11 -15 7 -24 7 -34 -1 -15 -12 -335 -12 -335 0 0 5 -13 3 -29 -3
-48 -18 -61 1 -61 92 0 96 11 112 64 91z m3984 -2 c7 -7 12 -33 12 -60 0 -29
5 -50 14 -55 19 -11 25 -35 14 -55 -6 -13 -21 -18 -52 -18 -50 0 -56 8 -56 73
0 23 -7 48 -16 58 -20 22 -12 46 18 59 32 12 52 12 66 -2z m160 0 c7 -7 12
-33 12 -58 0 -33 5 -50 20 -63 20 -16 20 -16 20 23 0 22 -4 40 -9 40 -15 0
-22 32 -10 46 16 19 67 28 84 14 10 -8 15 -31 15 -61 0 -38 4 -51 20 -59 22
-12 26 -40 8 -58 -15 -15 -94 -16 -104 -1 -4 8 -9 8 -17 0 -6 -6 -30 -11 -53
-11 -47 0 -54 9 -54 71 0 22 -7 51 -16 64 -18 27 -12 42 20 55 30 12 50 12 64
-2z m282 -3 c15 -14 20 -14 46 0 59 31 84 14 84 -57 0 -37 4 -50 20 -58 23
-12 26 -42 6 -59 -8 -7 -32 -11 -53 -9 l-38 3 -3 55 c-3 58 -28 102 -44 78
-14 -23 -8 -57 12 -68 24 -13 27 -55 4 -64 -26 -10 -79 -7 -92 6 -7 7 -12 34
-12 62 0 31 -6 56 -16 67 -18 20 -12 36 20 49 31 13 48 12 66 -5z m278 3 c7
-7 13 -35 13 -62 2 -46 2 -48 8 -16 6 32 10 36 52 44 26 5 58 6 73 2 25 -6 26
-8 23 -79 l-2 -72 -35 -5 c-19 -3 -69 -3 -110 0 l-75 5 -3 57 c-2 34 -9 61
-17 68 -22 18 -18 49 8 60 31 12 51 12 65 -2z m938 -5 c9 -10 32 -23 51 -29
31 -11 34 -10 39 11 3 13 15 26 27 29 36 9 145 7 152 -4 3 -6 15 -5 31 2 18 9
30 9 42 1 10 -5 26 -7 37 -3 11 4 74 6 140 4 138 -3 117 -3 265 0 63 1 120 -2
127 -7 7 -5 18 -5 25 -1 22 14 248 13 261 -1 9 -9 14 -9 25 2 18 17 37 17 56
-2 9 -9 17 -11 21 -5 10 16 81 12 95 -5 11 -13 10 -22 -3 -51 -10 -19 -17 -46
-17 -60 0 -51 -16 -64 -76 -64 -30 0 -64 5 -74 10 -13 7 -21 7 -25 0 -8 -13
-52 -13 -60 0 -4 7 -11 7 -18 2 -15 -12 -806 -13 -829 -1 -10 6 -19 5 -23 -1
-8 -14 -162 -13 -171 1 -4 8 -9 8 -17 0 -14 -14 -134 -15 -142 -1 -4 7 -12 7
-25 0 -34 -18 -59 -12 -66 17 -8 32 14 52 51 45 24 -4 25 -3 25 50 0 75 34
102 76 61z m-3195 -33 c21 -12 26 -56 7 -63 -10 -3 -10 -7 0 -20 8 -9 12 -26
10 -39 -2 -18 -9 -23 -33 -23 -27 0 -30 4 -33 33 -2 19 1 32 8 32 7 0 6 8 -4
21 -15 22 -11 48 8 61 14 10 14 10 37 -2z m130 -80 c6 0 9 -15 7 -32 -2 -26
-8 -34 -27 -36 -23 -4 -51 19 -51 39 0 16 33 40 47 35 8 -3 19 -6 24 -6z m172
-20 c7 -28 -15 -52 -44 -48 -19 2 -25 10 -27 35 -2 24 1 32 15 35 29 6 51 -2
56 -22z m122 -2 c9 -26 -13 -50 -44 -46 -21 2 -27 9 -29 35 -2 24 1 32 15 35
29 6 52 -3 58 -24z m160 0 c9 -26 -13 -50 -44 -46 -19 2 -27 10 -29 27 -7 47
59 64 73 19z m119 5 c10 -26 -13 -54 -42 -51 -33 4 -44 45 -17 64 19 14 51 8
59 -13z m161 -5 c9 -26 -13 -50 -44 -46 -19 2 -27 10 -29 27 -7 47 59 64 73
19z m106 22 c39 -21 13 -75 -33 -68 -30 4 -38 46 -12 65 21 16 20 16 45 3z
m160 0 c37 -20 17 -70 -28 -70 -31 0 -44 47 -18 67 22 16 21 16 46 3z m134
-21 c12 -38 -35 -65 -63 -37 -19 19 -14 48 11 57 28 11 45 4 52 -20z m163 -11
c-4 -29 -33 -46 -55 -32 -28 17 -28 53 -1 63 31 12 60 -4 56 -31z m1130 5 c4
-25 -20 -45 -50 -41 -29 4 -38 46 -13 64 22 16 59 3 63 -23z m110 -7 c-3 -27
-7 -31 -33 -31 -24 0 -31 5 -33 24 -5 29 20 51 49 44 16 -4 19 -13 17 -37z
m148 36 c35 -24 15 -76 -27 -70 -31 4 -39 46 -13 65 20 15 25 16 40 5z m142
-29 c4 -25 -20 -45 -50 -41 -29 4 -38 46 -13 64 22 16 59 3 63 -23z m-5391
-110 c5 -11 7 -11 17 1 7 10 30 15 66 16 30 0 64 0 75 0 49 1 182 1 203 1 12
-1 31 -1 42 -1 11 0 28 0 38 0 9 -1 32 2 50 6 21 4 40 1 55 -9 19 -12 24 -12
35 -1 16 18 38 18 54 1 10 -12 15 -12 26 0 18 18 28 17 52 -7 15 -15 20 -17
20 -5 0 20 48 30 83 17 21 -8 35 -8 50 -1 13 8 27 8 41 1 14 -6 28 -6 39 -1
11 6 24 6 37 -1 13 -7 26 -7 39 -1 10 6 54 8 97 5 44 -2 84 -4 89 -4 6 0 64 2
130 4 66 1 127 0 135 -4 8 -4 24 -4 35 0 11 4 31 3 44 -2 14 -5 28 -5 35 2 7
5 47 8 92 5 88 -4 108 -5 143 -4 14 1 31 -7 38 -17 10 -13 30 -18 85 -20 40
-2 78 -3 85 -3 6 -1 15 -11 19 -23 l7 -23 8 22 c6 16 19 22 61 28 29 4 60 13
68 20 22 18 61 25 82 14 14 -8 18 -22 18 -64 0 -41 4 -55 14 -55 21 0 31 -39
14 -56 -23 -24 -73 -28 -92 -8 -15 14 -19 15 -26 3 -11 -17 -112 -18 -133 -1
-10 9 -17 10 -22 2 -8 -13 -244 -13 -265 0 -9 5 -19 5 -27 -2 -7 -5 -29 -10
-50 -10 -21 0 -246 1 -501 2 -401 2 -464 4 -469 17 -5 13 -7 13 -15 0 -6 -12
-26 -16 -78 -16 -59 0 -70 3 -70 17 -1 16 -1 16 -11 0 -12 -21 -98 -25 -117
-6 -9 9 -12 9 -12 0 0 -14 -39 -16 -60 -2 -9 6 -17 5 -22 -3 -9 -15 -169 -12
-178 4 -6 8 -9 8 -14 0 -10 -15 -66 -14 -66 1 0 9 -3 9 -12 0 -7 -7 -39 -12
-73 -12 -34 0 -66 5 -73 12 -7 7 -12 43 -12 90 0 61 3 79 16 86 21 12 54 4 61
-15z m4411 11 c15 -10 27 -12 35 -6 21 16 59 21 79 11 14 -8 18 -22 18 -64 0
-41 4 -55 14 -55 21 0 29 -17 22 -44 -6 -25 -47 -39 -85 -29 -18 5 -21 12 -21
62 0 43 -4 60 -19 73 -17 14 -20 15 -25 1 -11 -28 -6 -52 14 -63 25 -13 27
-58 3 -67 -31 -12 -84 -8 -94 8 -5 7 -9 38 -9 67 0 28 -4 52 -9 52 -15 0 -22
32 -10 46 6 7 20 15 32 17 12 2 24 5 27 6 3 0 16 -6 28 -15z m273 6 c15 -8 19
-22 20 -63 1 -45 2 -48 8 -18 5 27 13 37 37 45 17 6 39 19 48 29 19 19 26 20
50 11 12 -5 16 -21 16 -69 0 -47 4 -64 15 -69 26 -10 16 -36 -17 -50 -34 -14
-196 -15 -217 -2 -6 4 -11 31 -11 59 0 40 -5 57 -20 70 -25 21 -13 53 22 60
13 2 24 5 26 6 2 0 12 -4 23 -9z m953 -16 c14 -17 76 -31 76 -16 0 6 7 17 15
26 12 12 22 13 41 6 16 -6 32 -6 43 -1 10 6 51 8 92 5 41 -3 79 -5 84 -4 11 0
261 1 285 1 8 -1 114 0 235 2 195 2 221 1 236 -14 15 -15 18 -15 23 -3 7 19
80 19 96 -1 10 -13 10 -22 -3 -53 -8 -20 -19 -55 -23 -77 l-9 -40 -512 -1
c-336 -1 -513 2 -513 8 0 7 -4 7 -12 0 -17 -13 -208 -15 -224 -2 -8 8 -14 8
-19 0 -3 -5 -19 -10 -35 -10 -24 0 -31 5 -36 27 -8 32 14 52 51 45 24 -4 25
-3 25 50 0 30 6 60 12 66 15 15 57 7 72 -14z m-3184 -59 c0 -13 -5 -27 -10
-30 -8 -5 -7 -11 0 -20 19 -23 8 -60 -19 -63 -33 -5 -53 22 -40 55 5 14 5 31
0 40 -12 22 -2 51 18 56 26 6 51 -12 51 -38z m1528 6 c2 -12 -1 -28 -7 -35 -7
-9 -7 -16 0 -23 6 -6 9 -21 7 -34 -2 -19 -10 -25 -35 -27 -37 -4 -52 23 -33
59 9 15 9 24 1 32 -15 15 -14 33 4 51 21 20 59 6 63 -23z m160 0 c2 -12 -1
-28 -7 -35 -7 -9 -7 -16 0 -23 19 -19 6 -58 -20 -61 -33 -5 -53 22 -40 55 6
15 5 31 -1 43 -13 24 -13 26 5 44 21 20 59 6 63 -23z m122 9 c6 -11 5 -23 -4
-36 -12 -16 -12 -22 0 -38 29 -40 -34 -79 -66 -41 -10 12 -10 21 -1 41 8 19 9
30 0 40 -14 17 -3 52 19 57 24 5 41 -2 52 -23z m-842 -87 c4 -25 -20 -45 -50
-41 -29 4 -38 46 -13 64 22 16 59 3 63 -23z m157 -9 c0 -26 -3 -29 -35 -29
-30 0 -36 4 -38 24 -5 31 22 53 51 42 16 -6 22 -17 22 -37z m1411 13 c9 -29
-30 -61 -57 -46 -31 16 -35 40 -11 60 27 21 59 14 68 -14z m402 -5 c4 -28 -34
-55 -60 -41 -23 12 -24 55 -1 67 23 14 57 -1 61 -26z m-2819 10 c13 -25 -5
-52 -34 -52 -27 0 -48 30 -39 54 9 22 61 21 73 -2z m160 -1 c14 -26 -8 -54
-39 -49 -25 3 -36 27 -26 54 8 20 53 17 65 -5z m122 3 c19 -23 -1 -49 -37 -49
-30 0 -42 20 -30 51 7 19 50 18 67 -2z m164 -4 c9 -28 -13 -52 -44 -48 -26 3
-38 26 -27 54 9 23 63 18 71 -6z m118 -2 c8 -29 -11 -50 -42 -46 -48 6 -41 68
8 68 21 0 30 -6 34 -22z m162 2 c9 -28 -13 -52 -44 -48 -26 3 -38 26 -27 54 9
23 63 18 71 -6z m400 1 c9 -31 -5 -51 -36 -51 -22 0 -30 6 -35 24 -8 34 2 46
36 46 19 0 31 -6 35 -19z m160 8 c4 -5 4 -21 1 -35 -5 -18 -13 -24 -35 -24
-31 0 -45 20 -36 51 7 21 59 27 70 8z m1243 -21 c-3 -29 -6 -33 -33 -33 -21 0
-31 5 -33 18 -6 32 6 47 38 47 29 0 31 -2 28 -32z m165 10 c8 -29 -11 -50 -42
-46 -48 6 -41 68 8 68 21 0 30 -6 34 -22z m-4898 -139 c11 0 69 2 129 5 62 3
118 0 128 -5 10 -5 19 -22 19 -37 l1 -27 7 29 c4 21 14 32 33 37 41 11 189 9
220 -3 18 -7 32 -6 45 0 10 6 24 7 33 2 9 -5 34 -4 57 3 34 9 45 8 66 -6 15
-10 27 -12 29 -6 2 5 12 10 23 10 11 0 52 0 90 1 39 1 104 0 145 -1 41 -1 104
-1 140 0 36 2 101 2 145 1 123 -3 185 -3 250 3 79 6 112 -1 121 -28 l7 -22 8
22 c6 16 19 23 52 28 55 8 84 0 92 -26 5 -16 16 -19 60 -19 30 0 57 -5 61 -11
4 -8 9 -8 17 0 6 6 31 11 54 11 29 0 54 7 72 21 19 14 39 19 62 17 33 -3 34
-4 37 -53 2 -34 10 -56 23 -68 44 -41 -8 -90 -73 -68 -17 6 -40 6 -62 0 -22
-6 -50 -6 -81 1 -25 6 -50 8 -54 6 -4 -3 -61 -6 -126 -7 -102 -2 -119 0 -130
15 -12 16 -14 16 -22 1 -11 -19 15 -18 -500 -16 -267 1 -404 5 -408 12 -5 7
-11 7 -19 0 -8 -6 -58 -11 -117 -10 -57 0 -144 -1 -194 -3 -123 -6 -148 0
-156 37 l-7 30 -1 -27 c0 -15 -6 -30 -12 -33 -6 -4 -54 -7 -107 -7 -53 1 -171
1 -261 1 -121 1 -167 4 -173 13 -9 15 -11 139 -2 162 8 21 63 21 70 1 6 -14 8
-14 18 -1 15 19 38 23 111 18 33 -2 69 -3 80 -3z m3920 -3 c17 -11 22 -11 33
1 15 15 47 9 70 -13 17 -18 38 -18 45 0 9 23 96 32 128 13 20 -11 30 -12 38
-4 14 14 218 19 243 6 15 -8 18 -22 18 -94 0 -52 -4 -86 -11 -91 -20 -12 -236
-9 -252 4 -8 7 -17 8 -23 2 -11 -11 -54 -14 -167 -12 -82 2 -89 4 -95 24 -5
21 -5 21 -13 1 -9 -25 -42 -30 -161 -28 -53 2 -94 7 -103 15 -17 14 -21 91 -5
120 5 10 21 21 35 24 14 4 33 14 43 24 22 22 147 28 177 8z m1348 4 c9 0 23 0
30 0 51 1 197 1 327 -1 8 0 53 0 100 1 47 1 105 0 130 -2 l45 -3 0 -90 0 -90
-32 -3 c-26 -3 -33 0 -33 15 -1 17 -1 17 -11 1 -9 -16 -30 -18 -199 -17 -125
0 -190 4 -190 11 0 7 -4 7 -13 -1 -12 -9 -155 -15 -291 -12 -60 1 -67 13 -64
100 3 69 5 77 28 89 17 9 46 11 90 7 36 -3 73 -5 83 -5z m826 -6 c17 -12 26
-13 34 -5 15 15 120 14 135 -1 9 -9 15 -9 24 0 17 17 64 15 81 -3 15 -15 12
-50 -4 -61 -5 -3 -9 -24 -9 -47 0 -23 -4 -47 -8 -54 -6 -9 -63 -12 -217 -10
l-210 2 0 90 c0 88 1 90 24 93 15 3 30 -3 38 -14 7 -10 13 -13 13 -6 0 9 37
25 70 31 3 1 16 -6 29 -15z m-3454 -49 c0 -49 -1 -50 -30 -50 -28 0 -30 3 -33
39 -5 54 3 68 35 64 26 -3 28 -6 28 -53z m-276 1 c13 -16 -1 -56 -19 -56 -6 0
-1 -9 10 -20 28 -28 11 -63 -28 -58 -30 3 -42 39 -22 63 7 9 8 15 0 20 -11 7
-14 48 -3 58 11 12 50 7 62 -7z m121 -1 c13 -16 5 -55 -13 -55 -6 0 -1 -9 12
-21 23 -22 22 -43 -5 -86 -9 -14 -10 -24 -4 -28 6 -3 10 -28 10 -54 0 -30 5
-53 15 -61 20 -16 35 -4 35 29 0 15 5 32 12 39 15 15 124 16 134 1 4 -8 9 -8
17 0 29 29 84 0 72 -39 -7 -22 -58 -29 -71 -9 -9 15 -24 -9 -17 -28 4 -10 9
-11 16 -4 29 29 84 0 72 -39 -7 -22 -58 -29 -71 -9 -4 8 -9 7 -15 -2 -13 -21
-129 -18 -142 3 -10 15 -12 15 -23 1 -7 -10 -25 -16 -45 -15 -19 0 -49 1 -66
1 -18 0 -52 0 -75 0 -24 0 -92 -1 -153 -2 -162 -1 -186 0 -198 12 -7 7 -14 7
-24 0 -7 -7 -32 -12 -56 -12 -524 -2 -972 5 -979 16 -6 9 -8 9 -8 0 0 -20 -57
-16 -69 5 -9 15 -10 15 -11 1 0 -21 -46 -27 -165 -22 -119 5 -115 5 -230 0
-126 -5 -148 1 -156 39 l-7 29 -1 -28 c-1 -31 -19 -41 -71 -41 -19 1 -108 2
-197 3 -134 2 -162 5 -167 17 -8 20 -8 138 0 158 7 19 60 22 67 4 3 -10 7 -10
18 -2 17 14 294 25 327 13 15 -6 22 -17 23 -36 2 -27 2 -27 6 -3 3 14 9 29 13
34 16 16 215 16 245 0 22 -11 31 -12 42 -2 10 8 54 12 125 12 94 1 112 -2 123
-17 11 -15 13 -16 19 -2 6 16 51 21 60 6 4 -5 19 -3 36 6 22 10 38 12 58 6 15
-5 52 -8 82 -7 123 4 191 6 305 6 66 0 134 0 150 0 17 0 86 -1 154 -2 69 0
148 2 175 5 33 4 60 1 76 -8 21 -11 32 -10 65 1 50 17 105 8 112 -19 4 -16 14
-19 59 -19 38 0 56 -5 62 -16 8 -14 10 -14 21 0 9 10 30 16 60 16 33 0 51 5
63 19 8 10 21 20 27 22 8 3 8 15 0 42 -8 31 -7 43 5 62 10 15 12 26 6 30 -11
7 -14 48 -3 58 12 12 50 7 63 -8z m2538 -18 c2 -17 -2 -29 -12 -33 -12 -5 -11
-9 5 -25 14 -14 18 -27 14 -42 -4 -12 -9 -30 -11 -39 -3 -10 3 -21 16 -28 11
-6 20 -18 21 -28 0 -13 3 -11 9 6 7 16 18 22 40 22 16 0 30 -4 30 -9 0 -5 13
-3 30 5 18 10 38 13 52 8 13 -4 73 -6 133 -4 61 1 124 2 140 2 17 0 51 -1 78
-1 28 0 47 -5 47 -12 0 -8 4 -8 13 -1 8 7 62 10 142 9 l130 -2 0 -90 0 -90
-32 -3 c-26 -3 -33 1 -33 14 0 17 -1 17 -12 1 -8 -10 -27 -17 -48 -17 -294 -3
-616 3 -627 12 -9 7 -13 7 -13 -1 0 -6 -14 -11 -30 -11 -22 0 -33 6 -40 23 -9
22 -9 22 -9 1 -1 -29 -30 -33 -161 -25 -97 6 -105 8 -108 27 -2 12 4 28 12 37
14 13 14 16 1 21 -18 7 -20 37 -3 54 7 7 33 12 58 12 34 0 48 5 58 20 7 11 19
20 27 20 11 0 13 10 8 51 -5 42 -3 54 11 64 14 11 15 13 1 19 -15 5 -21 47 -8
60 4 4 21 6 38 4 24 -2 31 -8 33 -31z m-2258 -62 c6 -8 9 -23 5 -35 -5 -17
-13 -20 -38 -18 -32 3 -45 23 -33 54 7 18 50 18 66 -1z m160 0 c6 -8 9 -23 5
-35 -5 -17 -13 -20 -38 -18 -32 3 -45 23 -33 54 7 18 50 18 66 -1z m118 6 c8
-4 12 -19 10 -32 -2 -20 -9 -24 -38 -24 -36 0 -49 18 -36 51 6 15 43 19 64 5z
m167 -26 c0 -28 -3 -30 -35 -30 -26 0 -36 5 -38 18 -7 34 6 48 40 45 29 -3 33
-6 33 -33z m120 16 c9 -30 -5 -51 -35 -51 -34 0 -44 13 -36 46 5 18 13 24 36
24 19 0 31 -6 35 -19z m161 -5 c8 -33 -2 -46 -36 -46 -30 0 -44 21 -35 51 4
13 16 19 35 19 23 0 31 -6 36 -24z m119 -11 c0 -26 -4 -30 -31 -33 -34 -3 -49
16 -38 50 4 15 13 18 37 16 28 -3 32 -7 32 -33z m1005 20 c26 -32 -16 -74 -54
-53 -16 9 -22 49 -9 61 12 12 50 7 63 -8z m118 -23 c3 -32 2 -33 -30 -30 -22
2 -34 9 -36 21 -6 33 6 49 35 45 24 -2 29 -8 31 -36z m160 22 c5 -9 7 -25 4
-36 -3 -15 -12 -18 -36 -16 -31 3 -44 23 -32 54 7 19 53 18 64 -2z m-983 -104
c16 -6 25 -18 26 -32 1 -23 1 -23 8 1 4 15 17 27 32 32 40 10 218 4 230 -8 8
-8 21 -7 47 4 46 19 101 11 124 -19 l18 -23 20 23 c13 16 28 22 47 20 27 -3
28 -6 31 -62 2 -42 8 -63 20 -72 13 -10 15 -17 6 -30 -16 -27 -50 -32 -170
-27 -126 6 -119 6 -244 0 -119 -5 -151 0 -158 26 -5 21 -5 21 -13 0 -9 -26
-47 -32 -161 -29 -103 3 -118 12 -118 71 0 60 7 72 46 85 19 6 34 16 34 21 0
23 128 37 175 19z m2192 -12 c10 -8 17 -8 25 0 13 13 47 16 72 6 18 -7 22 -59
6 -69 -5 -3 -10 -25 -10 -48 0 -69 -2 -70 -122 -68 -67 1 -78 3 -78 19 -1 16
-1 16 -11 0 -6 -11 -22 -18 -39 -18 l-30 0 0 88 c0 49 3 91 6 95 11 11 167 7
181 -5z m-3177 -43 c6 -8 9 -23 5 -35 -5 -17 -13 -20 -38 -18 -32 3 -45 23
-33 54 7 18 50 18 66 -1z m114 9 c25 -9 20 -53 -6 -64 -17 -6 -19 -9 -6 -9 28
-1 41 -37 28 -75 -12 -37 -40 -51 -65 -32 -22 16 -23 85 -1 101 14 11 15 13 1
19 -15 5 -21 47 -8 59 8 9 36 9 57 1z m1574 -6 c19 -19 14 -48 -10 -58 -13 -5
-18 -9 -11 -9 43 -3 50 -69 11 -103 -28 -25 -55 -8 -64 39 -6 30 -3 39 14 54
18 14 19 18 7 23 -15 5 -21 47 -8 59 11 11 48 8 61 -5z m-1683 -84 c9 -9 14
-23 11 -31 -4 -8 -9 -26 -12 -39 -5 -21 -12 -25 -38 -22 -28 3 -31 6 -34 42
-2 21 -1 44 2 52 7 19 51 18 71 -2z m285 1 c18 -21 -3 -91 -29 -98 -33 -8 -51
11 -51 57 0 23 3 46 7 49 12 13 60 7 73 -8z m110 0 c6 -8 9 -23 5 -35 -5 -17
-13 -20 -38 -18 -21 2 -33 9 -35 21 -8 39 42 63 68 32z m160 0 c22 -26 8 -50
-30 -50 -25 0 -36 5 -38 18 -5 23 15 47 38 47 10 0 23 -7 30 -15z m125 -20 c0
-26 -4 -30 -32 -33 -25 -2 -33 1 -38 18 -9 28 12 52 44 48 22 -2 26 -8 26 -33z
m-3340 -136 c4 -5 14 -5 25 1 27 15 243 13 258 -2 9 -9 15 -9 24 0 15 15 164
16 174 1 4 -8 9 -8 17 0 6 6 21 11 33 11 13 0 26 -5 30 -11 4 -8 9 -8 17 0 14
14 54 14 62 1 4 -7 11 -7 18 -2 7 5 287 9 660 10 557 0 648 -2 655 -15 7 -12
10 -12 21 1 10 11 31 16 72 16 48 0 60 -4 69 -20 9 -16 21 -20 61 -20 35 0 51
-4 55 -15 5 -13 8 -13 27 0 16 11 51 15 134 15 129 0 129 0 127 -88 0 -34 -6
-57 -15 -63 -22 -14 -233 -11 -247 3 -9 9 -15 9 -24 0 -19 -19 -237 -16 -258
3 -15 14 -18 14 -30 0 -15 -18 -159 -22 -177 -4 -7 7 -17 8 -25 3 -17 -12
-678 -14 -700 -2 -10 5 -19 4 -23 -2 -8 -13 -82 -13 -90 1 -4 6 -14 7 -24 3
-25 -10 -124 -13 -143 -3 -10 6 -19 5 -23 -1 -10 -15 -82 -12 -98 5 -11 11
-17 11 -19 3 -7 -19 -137 -21 -144 -3 -5 13 -8 12 -21 0 -18 -18 -130 -20
-168 -3 -19 9 -28 9 -37 0 -15 -15 -205 -16 -242 -2 -16 6 -27 6 -31 0 -8 -13
-52 -13 -60 0 -4 6 -15 5 -30 -2 -46 -21 -53 -8 -50 94 1 51 3 94 4 94 6 7
132 0 136 -7z m3943 -1 c9 -9 15 -9 24 0 7 7 38 12 70 12 67 0 78 -12 78 -83
0 -42 1 -43 28 -39 53 7 76 -49 39 -95 -14 -19 -55 -16 -66 6 -8 15 -19 17
-60 13 -30 -2 -64 1 -81 8 -23 10 -34 10 -43 1 -7 -7 -51 -11 -117 -11 -140 0
-145 4 -144 105 1 55 5 79 15 86 22 14 243 11 257 -3z m560 0 c9 -9 15 -9 24
0 8 8 52 12 130 12 114 0 119 -1 128 -22 6 -17 9 -19 9 -6 1 22 46 35 65 19 9
-7 17 -8 20 -2 8 12 454 12 462 0 3 -5 13 -5 22 0 23 12 244 11 260 -1 16 -14
17 -159 0 -176 -19 -19 -49 -14 -55 8 l-6 21 -14 -21 c-16 -22 -81 -28 -100
-9 -8 8 -17 7 -32 -3 -17 -10 -25 -10 -41 0 -16 9 -24 10 -39 0 -15 -9 -26 -9
-45 0 -16 7 -28 8 -31 2 -8 -14 -78 -13 -92 1 -7 7 -17 8 -25 3 -7 -5 -66 -9
-131 -10 -89 -2 -121 1 -131 12 -12 11 -15 11 -20 -2 -9 -23 -48 -13 -62 15
l-12 24 -4 -24 c-3 -24 -5 -24 -119 -27 -90 -2 -120 1 -131 11 -12 12 -17 13
-33 1 -25 -18 -235 -20 -253 -2 -7 7 -12 38 -12 70 0 64 13 78 70 78 18 0 43
9 57 20 29 23 121 28 141 8z m1208 -2 c5 -12 9 -12 32 1 53 30 111 -24 70 -65
-7 -7 -15 -36 -18 -65 l-5 -52 -58 -3 c-81 -4 -87 3 -87 103 0 45 3 85 7 88
12 12 54 7 59 -7z m-3056 -46 c8 -14 8 -26 0 -40 -8 -14 -8 -26 0 -40 21 -40
-30 -82 -58 -47 -9 12 -14 125 -5 140 9 15 53 6 63 -13z m124 -2 c8 -13 8 -23
-2 -38 -10 -16 -10 -24 0 -40 17 -26 0 -55 -32 -55 -30 0 -49 29 -34 52 7 12
8 26 1 44 -15 38 -3 61 29 57 15 -2 32 -11 38 -20z m160 0 c8 -13 8 -23 -2
-38 -10 -16 -10 -24 0 -40 17 -26 0 -55 -32 -55 -30 0 -49 29 -34 52 7 12 8
25 0 44 -18 50 40 81 68 37z m120 0 c8 -13 8 -23 -2 -38 -10 -16 -10 -24 0
-40 17 -26 0 -55 -32 -55 -32 0 -49 29 -32 56 10 15 11 24 3 32 -25 25 -2 70
33 65 10 -2 24 -11 30 -20z m313 11 c8 -8 17 -8 31 0 28 15 115 14 130 -1 9
-9 15 -9 24 0 32 32 87 -2 66 -42 -7 -12 -7 -26 0 -41 20 -43 -34 -85 -66 -53
-9 9 -15 9 -24 0 -15 -15 -102 -16 -130 -1 -14 8 -23 8 -31 0 -7 -7 -55 -11
-123 -11 -133 0 -144 6 -144 80 0 74 11 80 144 80 68 0 116 -4 123 -11z
m-2890 -201 c7 -5 14 -5 18 2 8 13 52 13 61 -1 4 -8 9 -8 17 0 14 14 54 14 62
1 4 -7 11 -7 18 -2 15 12 376 12 383 0 3 -4 11 -5 17 -1 18 11 250 12 264 1 7
-6 18 -5 31 3 16 10 26 10 46 1 14 -6 28 -7 31 -3 6 11 595 11 617 0 10 -6 19
-5 23 1 8 13 92 13 101 -1 4 -8 9 -8 17 0 14 14 50 14 64 0 8 -8 17 -8 31 0
31 16 158 14 175 -3 26 -27 87 -47 108 -36 11 6 68 9 131 8 l113 -3 0 -75 0
-75 -305 -1 c-176 -1 -310 2 -317 8 -7 6 -14 5 -18 -2 -8 -13 -88 -13 -102 1
-7 7 -17 8 -25 3 -20 -13 -680 -14 -696 -1 -9 7 -16 7 -24 -1 -15 -15 -73 -16
-98 -2 -11 6 -21 6 -24 1 -8 -12 -128 -12 -143 0 -7 7 -14 6 -18 -1 -3 -5 -26
-10 -50 -10 -24 0 -47 5 -50 10 -4 7 -11 7 -18 2 -7 -5 -39 -10 -72 -10 -33 0
-65 5 -72 10 -7 5 -14 5 -18 -2 -11 -17 -95 -12 -102 6 -5 14 -7 14 -14 1 -12
-21 -138 -21 -146 0 -5 13 -7 13 -15 -1 -10 -18 -93 -23 -103 -6 -4 7 -11 7
-18 2 -15 -12 -126 -12 -149 -1 -10 6 -19 5 -23 -1 -3 -5 -24 -10 -47 -10 -32
0 -41 4 -45 20 -6 21 -6 21 -20 0 -9 -13 -23 -20 -36 -18 -20 3 -22 10 -25 87
-2 46 -1 90 2 96 5 14 445 17 463 3z m3131 0 c7 -7 12 -29 12 -49 0 -47 8 -69
26 -69 17 0 19 -41 2 -58 -15 -15 -72 -16 -98 -2 -13 7 -21 7 -25 0 -3 -5 -30
-10 -60 -10 -73 0 -89 16 -83 87 3 29 8 56 11 59 4 4 30 9 59 12 30 3 64 13
77 23 27 22 61 25 79 7z m532 -2 c6 -8 27 -20 45 -26 32 -11 34 -14 38 -63 3
-48 3 -47 5 15 2 55 5 69 21 78 27 14 234 13 249 -2 7 -7 15 -8 24 -1 7 5 48
10 91 11 63 2 79 -1 84 -14 5 -15 7 -15 15 0 10 18 53 22 63 6 4 -6 13 -7 23
-1 21 11 531 10 538 -1 3 -4 13 -4 22 0 9 5 52 10 95 10 65 1 79 -2 89 -17 11
-17 12 -17 30 1 17 17 51 17 81 1 12 -7 8 -47 -7 -69 -8 -11 -16 -40 -18 -65
l-3 -44 -83 -3 c-45 -2 -90 1 -99 7 -11 6 -23 5 -34 -2 -13 -8 -25 -8 -43 1
-16 7 -26 8 -26 2 0 -13 -36 -13 -60 0 -13 7 -21 7 -25 0 -9 -14 -78 -13 -93
2 -8 8 -15 8 -24 1 -8 -6 -94 -10 -216 -10 -172 -1 -204 2 -209 14 -5 13 -7
13 -15 -1 -7 -13 -24 -16 -86 -14 -42 1 -83 6 -90 11 -9 7 -17 6 -24 -1 -19
-19 -243 -16 -261 3 -13 12 -16 12 -20 1 -7 -19 -232 -22 -254 -5 -10 9 -17 9
-25 1 -14 -14 -235 -16 -256 -3 -21 13 -18 122 4 138 22 16 216 18 245 3 20
-11 67 7 97 36 18 19 96 18 112 0z m-1206 -48 c8 -13 8 -23 -2 -38 -10 -16
-10 -24 0 -40 17 -26 0 -55 -32 -55 -30 0 -49 29 -34 52 7 12 8 25 0 44 -18
50 40 81 68 37z m120 0 c8 -13 8 -23 -2 -38 -10 -16 -10 -24 0 -40 17 -26 0
-55 -32 -55 -30 0 -49 29 -34 52 7 12 8 25 0 44 -18 50 40 81 68 37z m157 6
c9 -12 10 -23 3 -43 -8 -19 -7 -32 0 -44 15 -23 -4 -52 -34 -52 -32 0 -49 29
-32 56 10 15 11 24 3 32 -24 24 -5 67 30 67 9 0 22 -7 30 -16z m113 10 c17 -7
21 -41 7 -63 -6 -9 -5 -21 2 -33 16 -24 -2 -53 -33 -53 -32 0 -49 29 -32 56
10 15 11 24 3 32 -34 34 6 79 53 61z m-3138 -245 c3 -6 17 -8 30 -5 13 4 73 8
133 11 84 4 113 2 123 -9 11 -11 16 -11 27 1 8 9 21 12 35 8 11 -4 28 -6 36
-6 8 1 66 4 128 7 92 5 117 3 137 -10 17 -11 25 -12 27 -4 6 16 140 24 164 10
12 -7 25 -6 42 1 17 8 28 8 41 0 12 -7 23 -8 35 -1 12 7 26 7 41 0 13 -6 27
-7 36 -1 19 12 66 11 89 -1 14 -8 25 -7 40 2 16 10 24 10 40 0 13 -8 27 -9 38
-4 21 11 512 10 529 -1 7 -4 21 -4 30 1 10 5 90 8 178 6 88 -2 166 -3 173 -3
20 2 181 1 195 0 6 -1 24 1 39 5 20 4 31 1 44 -15 25 -29 102 -30 127 -1 39
46 85 4 73 -67 -3 -21 0 -38 10 -47 20 -20 18 -43 -6 -56 -24 -13 -248 -12
-272 1 -10 6 -19 5 -23 -1 -8 -13 -172 -13 -180 0 -4 7 -11 7 -18 2 -16 -12
-329 -12 -344 0 -7 6 -14 5 -18 -2 -8 -14 -48 -13 -63 2 -8 8 -15 8 -24 1 -18
-14 -519 -14 -536 0 -9 7 -16 7 -24 -1 -15 -15 -73 -16 -98 -2 -11 6 -21 6
-24 1 -8 -12 -115 -12 -138 0 -10 6 -19 5 -23 -1 -8 -13 -141 -13 -166 1 -14
7 -24 7 -33 0 -7 -6 -61 -10 -127 -10 -63 1 -136 1 -162 0 -33 -1 -49 3 -53
14 -5 12 -8 12 -19 1 -20 -20 -320 -20 -340 0 -21 22 -21 147 1 168 18 19 40
21 50 5z m2735 1 c11 -7 19 -21 19 -38 0 -20 3 -23 9 -13 12 19 116 28 135 12
19 -16 18 -127 -1 -143 -8 -7 -51 -10 -111 -9 -112 1 -126 10 -116 73 5 29 2
43 -11 58 -22 25 -16 52 15 61 36 10 39 10 61 -1z m857 -23 c11 -22 16 -25 32
-17 26 14 103 13 118 -2 9 -9 18 -9 37 0 14 7 44 12 65 12 28 0 40 4 40 14 0
25 40 30 69 9 14 -11 38 -23 54 -27 25 -6 27 -10 25 -51 0 -25 2 -48 5 -52 4
-3 7 24 7 61 0 62 2 67 25 76 32 12 213 12 237 -1 10 -5 24 -7 30 -3 23 15
157 14 170 0 10 -11 15 -11 26 1 16 15 48 17 57 3 4 -6 13 -7 23 -2 9 5 116 7
237 5 121 -2 246 -3 278 -3 67 1 78 -12 57 -69 -8 -20 -16 -54 -19 -76 l-6
-40 -83 -3 c-52 -2 -89 1 -98 8 -7 7 -19 8 -26 3 -7 -4 -104 -9 -216 -9 -173
-2 -204 0 -209 13 -5 13 -7 13 -15 -1 -8 -13 -26 -16 -111 -14 -56 1 -152 0
-213 -1 -68 -2 -120 1 -132 8 -12 7 -23 7 -26 2 -8 -12 -237 -13 -256 -1 -8 5
-19 5 -25 0 -17 -14 -203 -15 -220 0 -10 8 -15 30 -15 63 0 32 -6 57 -16 68
-18 20 -12 36 20 49 34 15 60 7 74 -23z m-564 -29 c8 -13 8 -23 -2 -38 -10
-16 -10 -24 0 -40 17 -26 0 -55 -32 -55 -32 0 -49 29 -32 56 10 15 11 24 3 32
-25 25 -2 70 33 65 10 -2 24 -11 30 -20z m114 10 c16 -16 15 -55 0 -61 -10 -4
-10 -7 0 -18 22 -23 15 -58 -14 -65 -39 -10 -62 17 -45 52 8 19 9 30 1 38 -23
23 -3 66 30 66 9 0 21 -5 28 -12z m165 -3 c10 -9 17 -11 19 -4 4 13 88 24 122
15 23 -6 24 -10 24 -76 0 -61 -2 -70 -20 -76 -30 -9 -94 -7 -116 5 -11 6 -24
6 -33 0 -39 -24 -80 11 -59 51 8 14 8 26 0 40 -23 43 29 80 63 45z m-2643
-196 c8 0 71 1 140 1 69 0 134 0 145 1 11 0 29 0 40 0 11 0 29 0 40 0 24 2 70
2 105 0 14 -1 35 -1 48 -1 87 1 200 2 242 1 11 -1 28 -1 38 0 9 0 26 0 37 0
23 -2 67 -2 93 0 9 0 53 0 97 0 44 0 89 -1 100 -1 62 1 254 1 275 0 14 0 59 0
100 1 41 1 87 1 103 1 15 -1 36 -1 47 -2 11 0 28 0 38 0 9 -1 50 2 90 6 64 6
77 4 100 -13 15 -11 39 -23 55 -27 24 -6 27 -11 28 -54 1 -26 3 -36 6 -22 10
64 13 69 48 76 19 3 35 12 35 19 0 29 63 29 74 0 3 -10 20 -15 46 -15 68 0 80
-12 80 -80 0 -83 -13 -91 -150 -84 -58 3 -148 4 -200 3 -52 -2 -108 -2 -125
-2 -16 1 -194 1 -395 2 -201 0 -378 0 -395 0 -16 1 -97 1 -180 1 -99 1 -152 5
-157 12 -4 8 -10 9 -20 1 -18 -15 -131 -14 -141 0 -6 9 -10 9 -14 0 -6 -16
-99 -18 -108 -3 -5 7 -11 8 -19 1 -6 -5 -43 -9 -81 -8 -39 2 -87 -1 -109 -5
-29 -7 -44 -5 -62 7 -13 8 -25 11 -29 6 -3 -5 -45 -10 -93 -10 -48 0 -116 -1
-151 -1 -104 -1 -102 -2 -99 98 l3 87 33 3 c25 3 32 -1 32 -14 0 -16 1 -16 13
-2 16 22 39 26 117 20 36 -2 72 -4 80 -3z m2651 -45 c3 -21 7 -31 8 -21 1 23
44 39 95 35 32 -2 43 -9 53 -28 9 -19 13 -20 13 -7 0 9 12 23 28 29 15 7 38
20 51 30 31 24 82 23 114 -2 14 -11 31 -20 39 -20 8 0 19 -5 26 -12 8 -8 14
-5 21 15 8 21 18 27 53 31 54 6 143 6 186 0 l32 -5 0 -90 c0 -84 -1 -90 -22
-98 -23 -8 -220 -7 -235 2 -4 3 -51 1 -103 -4 -122 -11 -179 -4 -190 25 -7 17
-9 18 -9 3 -1 -26 -36 -35 -134 -33 -100 2 -107 6 -107 75 0 28 -6 52 -17 63
-21 23 -8 49 28 59 42 10 63 -4 70 -47z m924 45 c6 0 64 1 130 2 66 1 144 2
173 1 l52 -2 1 -42 2 -43 6 40 c5 36 9 40 39 43 25 3 32 -1 32 -14 0 -15 2
-16 18 -2 30 28 78 32 101 9 16 -16 21 -17 25 -5 7 17 67 19 84 2 16 -16 15
-43 -3 -58 -10 -8 -15 -30 -15 -61 0 -26 -4 -51 -10 -54 -9 -6 -93 -8 -202 -6
-28 1 -53 7 -62 17 -15 14 -16 14 -16 0 0 -11 -9 -16 -31 -16 -23 0 -32 5 -37
22 l-5 22 -8 -21 c-8 -23 -2 -22 -396 -25 -66 -1 -74 12 -71 106 3 76 4 81 28
88 20 6 74 5 165 -3z m-1209 -29 c6 -28 8 -29 27 -15 26 18 113 20 124 3 14
-23 12 -127 -4 -140 -17 -14 -180 -19 -205 -6 -14 7 -18 22 -18 67 0 43 -4 60
-15 65 -8 3 -15 11 -15 19 0 23 23 37 62 37 35 0 39 -3 44 -30z m-1899 -259
c14 -17 18 -18 27 -6 12 16 42 17 256 16 47 0 90 0 95 0 25 0 262 0 278 0 9 0
73 0 142 0 69 0 131 0 138 0 6 -1 50 0 97 0 47 0 93 1 103 0 27 0 70 0 92 0
11 0 28 0 38 0 25 -1 35 0 110 5 82 7 117 0 117 -23 0 -14 3 -13 16 5 19 28
41 28 71 0 l23 -21 23 21 c30 28 48 28 81 -3 34 -31 68 -32 81 -2 14 31 46 32
79 2 l28 -26 12 23 c16 32 46 33 80 3 16 -14 37 -25 48 -25 10 0 18 -6 18 -12
1 -7 7 1 14 18 17 38 34 43 154 43 79 0 96 -3 112 -19 14 -14 20 -16 20 -6 0
21 30 28 54 13 16 -11 24 -12 32 -2 13 13 350 15 372 2 6 -5 12 -15 12 -24 0
-12 4 -11 18 5 12 15 32 22 72 24 48 3 56 0 64 -18 l10 -22 17 21 c15 20 28
21 180 23 182 2 199 0 199 -23 0 -14 2 -14 19 1 23 21 80 18 94 -5 8 -12 6
-26 -6 -52 -9 -19 -17 -43 -17 -54 0 -10 -3 -28 -6 -41 l-6 -22 -272 2 -271 3
-4 45 -5 45 -5 -45 -6 -45 -232 -2 c-215 -2 -233 -1 -233 15 -1 16 -1 16 -11
0 -13 -22 -58 -23 -66 -2 -5 15 -7 15 -15 1 -7 -14 -57 -16 -418 -16 l-409 0
-7 22 -7 22 -8 -22 -8 -21 -648 0 c-488 -1 -650 2 -656 11 -7 9 -10 9 -14 0
-6 -16 -63 -17 -63 -1 0 9 -3 9 -12 0 -7 -7 -39 -12 -73 -12 -34 0 -66 5 -73
12 -19 19 -16 153 4 172 20 21 31 20 51 -3z m653 -232 c8 -1 49 1 90 5 58 4
79 2 98 -10 16 -11 27 -12 35 -5 7 5 37 11 66 12 41 2 57 -1 66 -14 10 -15 14
-15 24 -3 19 23 72 28 92 10 14 -12 22 -14 32 -6 19 16 113 18 131 3 11 -9 20
-10 29 -4 34 28 97 24 97 -5 0 -13 2 -13 18 1 27 24 127 24 141 0 9 -17 11
-17 23 -2 20 25 66 32 93 15 13 -9 26 -11 31 -6 5 5 36 10 69 11 44 2 61 -2
69 -14 8 -13 12 -13 20 -2 18 23 71 28 90 10 12 -12 20 -14 29 -7 18 16 127
18 136 4 6 -10 16 -9 45 3 44 18 74 12 86 -18 7 -16 9 -18 9 -5 1 19 19 26 71
28 61 3 70 1 80 -22 6 -16 9 -18 9 -6 1 23 54 37 121 32 80 -7 78 -7 159 0 78
6 111 -3 111 -32 0 -13 3 -12 16 6 13 19 24 22 76 22 52 0 61 -3 65 -20 5 -20
6 -20 19 -2 18 27 70 36 97 17 13 -9 25 -11 32 -5 18 15 112 15 130 0 12 -10
19 -10 27 -2 15 15 53 15 79 2 23 -13 24 -38 5 -66 -8 -11 -16 -40 -18 -65
l-3 -44 -215 0 -215 0 -6 45 -6 45 -1 -47 -2 -48 -271 0 c-270 0 -271 0 -277
22 l-5 22 -8 -22 c-8 -21 -11 -21 -279 -21 -199 0 -270 3 -270 11 0 9 -3 9
-12 0 -8 -8 -53 -12 -136 -12 -107 0 -127 2 -138 18 -13 16 -13 16 -14 0 0
-16 -21 -17 -267 -17 -178 0 -271 3 -280 11 -9 7 -13 7 -13 0 0 -8 -81 -11
-271 -9 -250 2 -273 3 -283 20 -9 15 -7 22 11 37 19 15 20 19 7 24 -10 4 -14
16 -12 33 3 26 7 28 52 31 36 2 56 10 70 25 21 22 27 23 146 16z m358 -295 c8
-14 10 -14 21 0 16 19 82 21 99 4 9 -9 15 -9 24 0 7 7 37 12 68 12 31 0 61 -5
68 -12 9 -9 15 -9 24 0 18 18 85 15 96 -5 9 -16 11 -16 27 0 23 24 120 24 133
0 9 -16 11 -16 27 0 21 22 93 23 101 2 5 -13 8 -13 21 0 19 19 117 20 135 2
10 -12 15 -12 26 0 16 16 89 18 94 2 3 -9 9 -9 25 0 12 6 46 11 77 11 32 0 56
-5 58 -11 3 -9 9 -9 25 0 31 16 92 14 99 -4 5 -13 8 -13 21 0 21 21 131 21
140 0 5 -14 7 -14 22 0 26 23 257 20 270 -3 7 -13 31 -18 98 -22 l88 -5 3 -72
c2 -62 0 -72 -15 -76 -10 -3 -130 -4 -268 -3 l-249 1 -13 25 c-12 23 -13 24
-13 4 0 -12 -7 -25 -16 -28 -27 -10 -224 -7 -246 5 -14 8 -23 8 -31 0 -18 -18
-232 -14 -250 4 -13 13 -16 13 -27 0 -10 -12 -38 -15 -126 -15 -101 0 -115 2
-132 20 l-19 21 -6 -21 c-5 -19 -13 -20 -117 -20 -61 0 -120 5 -132 11 -14 8
-23 8 -31 0 -7 -7 -56 -11 -127 -11 -71 0 -120 4 -127 11 -7 7 -17 8 -29 1
-27 -14 -121 -13 -132 1 -5 7 -9 40 -10 74 0 72 5 76 95 72 50 -3 57 0 64 19
10 26 53 30 67 6z"/>
<path d="M7483 9295 c0 -22 2 -30 4 -17 2 12 2 30 0 40 -3 9 -5 -1 -4 -23z"/>
<path d="M7207 9314 c-11 -11 -8 -44 3 -44 15 0 24 30 13 41 -5 5 -12 6 -16 3z"/>
<path d="M7482 9050 c0 -19 2 -27 5 -17 2 9 2 25 0 35 -3 9 -5 1 -5 -18z"/>
<path d="M7212 9050 c0 -14 2 -19 5 -12 2 6 2 18 0 25 -3 6 -5 1 -5 -13z"/>
<path d="M7482 8770 c0 -19 2 -27 5 -17 2 9 2 25 0 35 -3 9 -5 1 -5 -18z"/>
<path d="M7200 8771 c0 -11 5 -23 10 -26 6 -3 10 1 10 9 0 9 0 19 1 23 0 4 -4
9 -10 11 -6 2 -11 -5 -11 -17z"/>
<path d="M6842 8760 c0 -14 2 -19 5 -12 2 6 2 18 0 25 -3 6 -5 1 -5 -13z"/>
<path d="M7482 8530 c0 -19 2 -27 5 -17 2 9 2 25 0 35 -3 9 -5 1 -5 -18z"/>
<path d="M7200 8525 c0 -14 4 -25 9 -25 12 0 23 29 15 41 -10 18 -24 9 -24
-16z"/>
<path d="M2412 8250 c0 -14 2 -19 5 -12 2 6 2 18 0 25 -3 6 -5 1 -5 -13z"/>
<path d="M1686 8233 c-4 -9 -2 -21 4 -27 7 -7 10 -2 10 17 0 31 -5 34 -14 10z"/>
<path d="M7482 8250 c0 -19 2 -27 5 -17 2 9 2 25 0 35 -3 9 -5 1 -5 -18z"/>
<path d="M6841 8244 c0 -11 3 -14 6 -6 3 7 2 16 -1 19 -3 4 -6 -2 -5 -13z"/>
<path d="M2702 8005 c0 -16 2 -22 5 -12 2 9 2 23 0 30 -3 6 -5 -1 -5 -18z"/>
<path d="M2142 7985 c0 -16 2 -22 5 -12 2 9 2 23 0 30 -3 6 -5 -1 -5 -18z"/>
<path d="M2411 7984 c0 -11 3 -14 6 -6 3 7 2 16 -1 19 -3 4 -6 -2 -5 -13z"/>
<path d="M6922 7725 c0 -50 0 -50 13 -20 7 17 10 32 6 35 -5 3 -11 12 -14 20
-3 8 -5 -7 -5 -35z"/>
<path d="M3260 7726 c0 -41 5 -45 20 -16 9 16 7 24 -5 36 -13 14 -15 12 -15
-20z"/>
<path d="M7483 7725 c0 -22 2 -30 4 -17 2 12 2 30 0 40 -3 9 -5 -1 -4 -23z"/>
<path d="M5800 7726 c0 -14 5 -26 10 -26 6 0 10 9 10 19 0 11 -4 23 -10 26 -6
4 -10 -5 -10 -19z"/>
<path d="M6077 7744 c-7 -8 4 -44 14 -44 12 0 12 37 0 44 -4 3 -11 3 -14 0z"/>
<path d="M6360 7720 c0 -18 4 -29 10 -25 6 3 10 15 10 25 0 10 -4 22 -10 25
-6 4 -10 -7 -10 -25z"/>
<path d="M7772 7720 c0 -19 2 -27 5 -17 2 9 2 25 0 35 -3 9 -5 1 -5 -18z"/>
<path d="M2782 7720 c0 -14 2 -19 5 -12 2 6 2 18 0 25 -3 6 -5 1 -5 -13z"/>
<path d="M6640 7720 c0 -11 5 -20 10 -20 6 0 10 9 10 20 0 11 -4 20 -10 20 -5
0 -10 -9 -10 -20z"/>
<path d="M2418 7698 c9 -9 15 -9 24 0 9 9 7 12 -12 12 -19 0 -21 -3 -12 -12z"/>
<path d="M6922 7485 c0 -50 0 -50 13 -20 7 17 10 32 6 35 -5 3 -11 12 -14 20
-3 8 -5 -7 -5 -35z"/>
<path d="M5510 7487 c0 -40 15 -50 25 -16 5 14 1 27 -9 37 -15 15 -16 13 -16
-21z"/>
<path d="M7483 7485 c0 -22 2 -30 4 -17 2 12 2 30 0 40 -3 9 -5 -1 -4 -23z"/>
<path d="M6360 7480 c0 -18 4 -29 10 -25 6 3 10 15 10 25 0 10 -4 22 -10 25
-6 4 -10 -7 -10 -25z"/>
<path d="M7210 7485 c1 -26 2 -28 11 -12 8 14 8 22 0 30 -8 8 -11 3 -11 -18z"/>
<path d="M2782 7480 c0 -14 2 -19 5 -12 2 6 2 18 0 25 -3 6 -5 1 -5 -13z"/>
<path d="M4102 7480 c0 -14 2 -19 5 -12 2 6 2 18 0 25 -3 6 -5 1 -5 -13z"/>
<path d="M6077 7480 c3 -11 9 -20 14 -20 5 0 9 9 9 20 0 11 -6 20 -14 20 -9 0
-12 -7 -9 -20z"/>
<path d="M6640 7480 c0 -11 4 -20 9 -20 5 0 11 9 14 20 3 13 0 20 -9 20 -8 0
-14 -9 -14 -20z"/>
<path d="M2410 7182 c0 -14 11 -21 26 -15 8 3 11 9 8 14 -7 11 -34 12 -34 1z"/>
<path d="M6923 7205 c0 -27 2 -38 4 -22 2 15 2 37 0 50 -2 12 -4 0 -4 -28z"/>
<path d="M6075 7218 c-10 -26 2 -55 17 -40 8 8 8 18 1 34 -10 21 -12 21 -18 6z"/>
<path d="M6360 7201 c0 -17 5 -31 10 -31 6 0 10 11 10 24 0 14 -4 28 -10 31
-6 4 -10 -7 -10 -24z"/>
<path d="M7480 7202 c0 -33 16 -43 27 -16 3 8 -2 23 -11 32 -15 15 -16 14 -16
-16z"/>
<path d="M6643 7204 c-3 -8 -1 -20 6 -27 8 -8 11 -4 11 16 0 30 -7 35 -17 11z"/>
<path d="M7210 7196 c0 -31 6 -34 13 -6 3 11 1 23 -4 26 -5 3 -9 -6 -9 -20z"/>
<path d="M8042 7200 c0 -14 2 -19 5 -12 2 6 2 18 0 25 -3 6 -5 1 -5 -13z"/>
<path d="M2140 6948 c0 -22 4 -25 21 -21 14 4 17 8 9 13 -7 4 -16 14 -21 21
-6 10 -9 6 -9 -13z"/>
<path d="M6360 6961 c0 -17 5 -31 10 -31 6 0 10 11 10 24 0 14 -4 28 -10 31
-6 4 -10 -7 -10 -24z"/>
<path d="M6640 6955 c0 -14 5 -25 10 -25 6 0 10 11 10 25 0 14 -4 25 -10 25
-5 0 -10 -11 -10 -25z"/>
<path d="M5591 6954 c0 -11 3 -14 6 -6 3 7 2 16 -1 19 -3 4 -6 -2 -5 -13z"/>
<path d="M7211 6960 c0 -29 1 -32 10 -17 7 11 7 23 0 35 -9 14 -10 11 -10 -18z"/>
<path d="M7482 6960 c0 -19 2 -27 5 -17 2 9 2 25 0 35 -3 9 -5 1 -5 -18z"/>
<path d="M8326 6974 c-3 -9 -2 -23 4 -32 7 -14 9 -10 10 16 0 35 -5 41 -14 16z"/>
<path d="M8042 6960 c0 -14 2 -19 5 -12 2 6 2 18 0 25 -3 6 -5 1 -5 -13z"/>
<path d="M6360 6673 c0 -28 3 -34 10 -23 13 20 13 47 0 55 -6 4 -10 -9 -10
-32z"/>
<path d="M5234 6687 c-4 -10 -2 -23 3 -28 14 -14 24 13 13 32 -7 11 -10 10
-16 -4z"/>
<path d="M8042 6680 c0 -14 2 -19 5 -12 2 6 2 18 0 25 -3 6 -5 1 -5 -13z"/>
<path d="M8610 6680 c0 -11 5 -20 10 -20 6 0 10 9 10 20 0 11 -4 20 -10 20 -5
0 -10 -9 -10 -20z"/>
<path d="M6841 6674 c0 -11 3 -14 6 -6 3 7 2 16 -1 19 -3 4 -6 -2 -5 -13z"/>
<path d="M3262 6660 c0 -14 2 -19 5 -12 2 6 2 18 0 25 -3 6 -5 1 -5 -13z"/>
<path d="M5512 6435 c0 -16 2 -22 5 -12 2 9 2 23 0 30 -3 6 -5 -1 -5 -18z"/>
<path d="M6072 6440 c0 -14 2 -19 5 -12 2 6 2 18 0 25 -3 6 -5 1 -5 -13z"/>
<path d="M3262 6420 c0 -14 2 -19 5 -12 2 6 2 18 0 25 -3 6 -5 1 -5 -13z"/>
<path d="M7771 6430 c0 -33 1 -34 11 -12 8 17 8 26 0 34 -9 9 -12 4 -11 -22z"/>
<path d="M6070 6156 c0 -17 5 -26 16 -26 10 0 14 7 12 22 -5 32 -28 35 -28 4z"/>
<path d="M4947 6146 c-7 -19 11 -32 24 -19 6 6 5 14 -4 22 -12 9 -16 8 -20 -3z"/>
<path d="M2416 6142 c-3 -6 -1 -14 5 -17 15 -10 25 3 12 16 -7 7 -13 7 -17 1z"/>
<path d="M2975 6141 c-7 -12 12 -24 25 -16 11 7 4 25 -10 25 -5 0 -11 -4 -15
-9z"/>
<path d="M7316 6142 c-3 -5 -1 -14 3 -20 6 -10 10 -10 20 1 9 12 8 16 -3 20
-9 4 -17 3 -20 -1z"/>
<path d="M2621 5914 c0 -11 3 -14 6 -6 3 7 2 16 -1 19 -3 4 -6 -2 -5 -13z"/>
<path d="M4105 5908 c-9 -22 4 -43 17 -30 7 7 7 16 0 29 -10 17 -11 17 -17 1z"/>
<path d="M2411 5894 c0 -11 3 -14 6 -6 3 7 2 16 -1 19 -3 4 -6 -2 -5 -13z"/>
<path d="M2980 5890 c0 -5 5 -10 10 -10 6 0 10 5 10 10 0 6 -4 10 -10 10 -5 0
-10 -4 -10 -10z"/>
<path d="M6072 5915 c0 -16 2 -22 5 -12 2 9 2 23 0 30 -3 6 -5 -1 -5 -18z"/>
<path d="M7482 5910 c0 -19 2 -27 5 -17 2 9 2 25 0 35 -3 9 -5 1 -5 -18z"/>
<path d="M9182 5915 c0 -16 2 -22 5 -12 2 9 2 23 0 30 -3 6 -5 -1 -5 -18z"/>
<path d="M5591 5914 c0 -11 3 -14 6 -6 3 7 2 16 -1 19 -3 4 -6 -2 -5 -13z"/>
<path d="M2621 5624 c0 -11 3 -14 6 -6 3 7 2 16 -1 19 -3 4 -6 -2 -5 -13z"/>
<path d="M2781 5624 c0 -11 3 -14 6 -6 3 7 2 16 -1 19 -3 4 -6 -2 -5 -13z"/>
<path d="M3545 5620 c-10 -16 7 -31 23 -21 10 6 10 10 -2 20 -10 9 -16 9 -21
1z"/>
<path d="M9175 5648 c-4 -10 -4 -26 0 -35 6 -17 7 -17 16 0 7 11 7 23 0 35 -9
16 -10 16 -16 0z"/>
<path d="M5591 5624 c0 -11 3 -14 6 -6 3 7 2 16 -1 19 -3 4 -6 -2 -5 -13z"/>
<path d="M2621 5384 c0 -11 3 -14 6 -6 3 7 2 16 -1 19 -3 4 -6 -2 -5 -13z"/>
<path d="M2781 5384 c0 -11 3 -14 6 -6 3 7 2 16 -1 19 -3 4 -6 -2 -5 -13z"/>
<path d="M5591 5384 c0 -11 3 -14 6 -6 3 7 2 16 -1 19 -3 4 -6 -2 -5 -13z"/>
<path d="M4947 5377 c-9 -23 8 -41 22 -24 9 11 8 17 -3 26 -10 9 -15 8 -19 -2z"/>
<path d="M5960 5364 c0 -8 5 -12 10 -9 6 4 8 11 5 16 -9 14 -15 11 -15 -7z"/>
<path d="M7211 5390 c0 -29 1 -32 10 -17 7 11 7 23 0 35 -9 14 -10 11 -10 -18z"/>
<path d="M7480 5392 c0 -34 14 -43 24 -15 4 9 0 23 -9 32 -13 14 -15 12 -15
-17z"/>
<path d="M8622 5385 c0 -16 2 -22 5 -12 2 9 2 23 0 30 -3 6 -5 -1 -5 -18z"/>
<path d="M6178 5363 c7 -3 16 -2 19 1 4 3 -2 6 -13 5 -11 0 -14 -3 -6 -6z"/>
<path d="M4111 5111 c-1 -27 2 -32 11 -23 8 8 8 17 0 34 -10 22 -11 21 -11
-11z"/>
<path d="M3822 5109 c1 -13 8 -23 13 -21 15 3 12 35 -3 40 -9 3 -13 -3 -10
-19z"/>
<path d="M8331 5110 c0 -40 2 -42 11 -22 8 16 8 28 0 45 -9 19 -11 17 -11 -23z"/>
<path d="M7482 5110 c0 -19 2 -27 5 -17 2 9 2 25 0 35 -3 9 -5 1 -5 -18z"/>
<path d="M7210 5103 c0 -21 3 -24 9 -14 5 8 7 20 4 28 -8 21 -13 15 -13 -14z"/>
<path d="M8610 5111 c0 -11 5 -23 10 -26 6 -4 10 5 10 19 0 14 -4 26 -10 26
-5 0 -10 -9 -10 -19z"/>
<path d="M7001 5104 c0 -11 3 -14 6 -6 3 7 2 16 -1 19 -3 4 -6 -2 -5 -13z"/>
<path d="M1851 4874 c-1 -33 6 -47 21 -38 5 4 5 10 0 17 -6 7 -12 21 -15 32
-3 14 -5 10 -6 -11z"/>
<path d="M2862 4865 c0 -16 2 -22 5 -12 2 9 2 23 0 30 -3 6 -5 -1 -5 -18z"/>
<path d="M2411 4844 c0 -11 3 -14 6 -6 3 7 2 16 -1 19 -3 4 -6 -2 -5 -13z"/>
<path d="M3826 4881 c-4 -6 -3 -19 3 -28 9 -17 10 -17 17 0 8 21 -10 45 -20
28z"/>
<path d="M4391 4883 c0 -5 4 -17 9 -28 8 -18 9 -17 9 8 1 15 -3 27 -9 27 -5 0
-10 -3 -9 -7z"/>
<path d="M4670 4865 c0 -15 4 -24 10 -20 6 3 10 12 10 20 0 8 -4 17 -10 20 -6
4 -10 -5 -10 -20z"/>
<path d="M8326 4884 c-3 -9 -2 -23 4 -32 7 -14 9 -10 10 16 0 35 -5 41 -14 16z"/>
<path d="M8610 4865 c0 -14 5 -25 10 -25 6 0 10 11 10 25 0 14 -4 25 -10 25
-5 0 -10 -11 -10 -25z"/>
<path d="M8890 4865 c0 -14 5 -25 10 -25 6 0 10 11 10 25 0 14 -4 25 -10 25
-5 0 -10 -11 -10 -25z"/>
<path d="M7874 4849 c-3 -6 -1 -16 5 -22 8 -8 11 -5 11 11 0 24 -5 28 -16 11z"/>
<path d="M8041 4844 c0 -11 3 -14 6 -6 3 7 2 16 -1 19 -3 4 -6 -2 -5 -13z"/>
<path d="M1853 4585 c0 -22 2 -30 4 -17 2 12 2 30 0 40 -3 9 -5 -1 -4 -23z"/>
<path d="M2411 4564 c0 -11 3 -14 6 -6 3 7 2 16 -1 19 -3 4 -6 -2 -5 -13z"/>
<path d="M4107 4614 c-10 -11 -9 -52 2 -59 13 -8 24 32 14 50 -5 9 -12 12 -16
9z"/>
<path d="M4390 4586 c0 -14 5 -26 10 -26 6 0 10 9 10 19 0 11 -4 23 -10 26 -6
4 -10 -5 -10 -19z"/>
<path d="M5235 4569 c-10 -15 3 -25 16 -12 7 7 7 13 1 17 -6 3 -14 1 -17 -5z"/>
<path d="M8325 4600 c-3 -5 -1 -18 4 -27 9 -16 10 -14 11 10 0 28 -5 34 -15
17z"/>
<path d="M8890 4585 c0 -14 4 -25 9 -25 12 0 23 29 15 41 -10 18 -24 9 -24
-16z"/>
<path d="M3262 4345 c0 -16 2 -22 5 -12 2 9 2 23 0 30 -3 6 -5 -1 -5 -18z"/>
<path d="M2621 4344 c0 -11 3 -14 6 -6 3 7 2 16 -1 19 -3 4 -6 -2 -5 -13z"/>
<path d="M2411 4324 c0 -11 3 -14 6 -6 3 7 2 16 -1 19 -3 4 -6 -2 -5 -13z"/>
<path d="M6072 4320 c0 -14 2 -19 5 -12 2 6 2 18 0 25 -3 6 -5 1 -5 -13z"/>
<path d="M8325 4360 c-3 -5 -1 -18 4 -27 9 -16 10 -14 11 10 0 28 -5 34 -15
17z"/>
<path d="M2702 4060 c0 -19 2 -27 5 -17 2 9 2 25 0 35 -3 9 -5 1 -5 -18z"/>
<path d="M3262 4060 c0 -14 2 -19 5 -12 2 6 2 18 0 25 -3 6 -5 1 -5 -13z"/>
<path d="M8331 4060 c0 -40 2 -42 11 -22 8 16 8 28 0 45 -9 19 -11 17 -11 -23z"/>
<path d="M8040 4060 c0 -11 7 -20 15 -20 8 0 15 9 15 20 0 11 -7 20 -15 20 -8
0 -15 -9 -15 -20z"/>
<path d="M2702 3820 c0 -19 2 -27 5 -17 2 9 2 25 0 35 -3 9 -5 1 -5 -18z"/>
<path d="M3260 3821 c0 -36 5 -39 19 -12 8 14 7 22 -4 31 -13 11 -15 8 -15
-19z"/>
<path d="M8331 3820 c0 -40 2 -42 11 -22 8 16 8 28 0 45 -9 19 -11 17 -11 -23z"/>
<path d="M8050 3820 c0 -11 5 -20 10 -20 6 0 10 9 10 20 0 11 -4 20 -10 20 -5
0 -10 -9 -10 -20z"/>
<path d="M3260 3541 c0 -34 15 -42 23 -11 3 10 -1 24 -9 31 -11 9 -14 6 -14
-20z"/>
<path d="M3546 3551 c-4 -6 -3 -18 2 -27 8 -15 10 -14 16 2 8 20 -8 42 -18 25z"/>
<path d="M8050 3540 c0 -11 5 -20 10 -20 6 0 10 9 10 20 0 11 -4 20 -10 20 -5
0 -10 -9 -10 -20z"/>
<path d="M4108 3319 c-2 -8 -2 -25 2 -39 6 -25 6 -25 14 -3 8 25 -7 66 -16 42z"/>
<path d="M3540 3295 c0 -14 4 -25 9 -25 12 0 23 29 15 41 -10 18 -24 9 -24
-16z"/>
<path d="M3827 3313 c-2 -4 -1 -17 3 -28 7 -19 8 -19 15 -2 8 18 -9 46 -18 30z"/>
<path d="M7766 3315 c-3 -9 -2 -24 3 -33 9 -16 10 -16 16 0 4 9 2 24 -3 33 -8
16 -9 16 -16 0z"/>
<path d="M4108 3038 c-3 -7 -2 -24 2 -38 l7 -25 8 28 c8 29 -8 61 -17 35z"/>
<path d="M2702 3015 c0 -16 2 -22 5 -12 2 9 2 23 0 30 -3 6 -5 -1 -5 -18z"/>
<path d="M3262 3020 c0 -14 2 -19 5 -12 2 6 2 18 0 25 -3 6 -5 1 -5 -13z"/>
<path d="M3822 3019 c1 -13 8 -23 13 -21 15 3 12 35 -3 40 -9 3 -13 -3 -10
-19z"/>
<path d="M6072 2990 c0 -14 2 -19 5 -12 2 6 2 18 0 25 -3 6 -5 1 -5 -13z"/>
<path d="M6230 2996 c0 -9 7 -16 16 -16 9 0 14 5 12 12 -6 18 -28 21 -28 4z"/>
<path d="M4105 2801 c-4 -7 -4 -24 0 -39 7 -26 8 -26 17 -6 12 25 -4 66 -17
45z"/>
<path d="M3262 2775 c0 -16 2 -22 5 -12 2 9 2 23 0 30 -3 6 -5 -1 -5 -18z"/>
<path d="M4390 2775 c0 -15 4 -24 10 -20 6 3 10 12 10 20 0 8 -4 17 -10 20 -6
4 -10 -5 -10 -20z"/>
<path d="M6232 2750 c0 -14 2 -19 5 -12 2 6 2 18 0 25 -3 6 -5 1 -5 -13z"/>
<path d="M7480 2775 c0 -32 2 -36 15 -25 8 7 15 18 15 25 0 7 -7 18 -15 25
-13 11 -15 7 -15 -25z"/>
<path d="M7002 2770 c0 -14 2 -19 5 -12 2 6 2 18 0 25 -3 6 -5 1 -5 -13z"/>
<path d="M3262 2495 c0 -16 2 -22 5 -12 2 9 2 23 0 30 -3 6 -5 -1 -5 -18z"/>
<path d="M4102 2496 c2 -15 8 -26 13 -26 15 0 12 43 -3 48 -10 3 -13 -4 -10
-22z"/>
<path d="M4670 2501 c0 -11 5 -23 10 -26 6 -3 10 3 10 14 0 11 -4 23 -10 26
-5 3 -10 -3 -10 -14z"/>
<path d="M7480 2494 c0 -31 2 -35 15 -24 8 7 15 17 15 22 0 5 -7 16 -15 24
-13 14 -15 11 -15 -22z"/>
<path d="M7002 2490 c0 -14 2 -19 5 -12 2 6 2 18 0 25 -3 6 -5 1 -5 -13z"/>
<path d="M6180 2470 c0 -5 5 -10 10 -10 6 0 10 5 10 10 0 6 -4 10 -10 10 -5 0
-10 -4 -10 -10z"/>
<path d="M4102 2250 c0 -14 2 -19 5 -12 2 6 2 18 0 25 -3 6 -5 1 -5 -13z"/>
<path d="M4670 2244 c0 -14 4 -23 10 -19 6 3 10 15 10 26 0 10 -4 19 -10 19
-5 0 -10 -12 -10 -26z"/>
<path d="M4950 2250 c0 -11 5 -20 10 -20 6 0 10 9 10 20 0 11 -4 20 -10 20 -5
0 -10 -9 -10 -20z"/>
<path d="M7207 2274 c-11 -11 -8 -44 3 -44 15 0 24 30 13 41 -5 5 -12 6 -16 3z"/>
<path d="M4390 1964 c0 -14 4 -23 10 -19 6 3 10 15 10 26 0 10 -4 19 -10 19
-5 0 -10 -12 -10 -26z"/>
<path d="M4670 1965 c0 -14 5 -25 10 -25 6 0 10 11 10 25 0 14 -4 25 -10 25
-5 0 -10 -11 -10 -25z"/>
<path d="M4950 1965 c0 -14 5 -25 10 -25 6 0 10 11 10 25 0 14 -4 25 -10 25
-5 0 -10 -11 -10 -25z"/>
<path d="M7210 1966 c0 -31 6 -34 13 -6 3 11 1 23 -4 26 -5 3 -9 -6 -9 -20z"/>
<path d="M6071 1954 c0 -11 3 -14 6 -6 3 7 2 16 -1 19 -3 4 -6 -2 -5 -13z"/>
<path d="M4670 1726 c0 -14 5 -26 10 -26 6 0 10 9 10 19 0 11 -4 23 -10 26 -6
4 -10 -5 -10 -19z"/>
<path d="M6647 1743 c-11 -10 -8 -43 3 -43 6 0 10 11 10 25 0 26 -2 29 -13 18z"/>
</g>
</svg>
